<?xml version="1.0" standalone="no"?>
<!DOCTYPE svg PUBLIC "-//W3C//DTD SVG 20010904//EN"
 "http://www.w3.org/TR/2001/REC-SVG-20010904/DTD/svg10.dtd">
<svg version="1.0" xmlns="http://www.w3.org/2000/svg"
 width="3500.000000pt" height="3500.000000pt" viewBox="0 0 3500.000000 3500.000000"
 preserveAspectRatio="xMidYMid meet">

<g transform="translate(0.000000,3500.000000) scale(0.100000,-0.100000)"
fill="#000000" stroke="none">
<path d="M20527 33943 c-15 -14 -4 -22 86 -68 108 -55 159 -84 185 -108 10 -9
23 -17 29 -17 6 0 16 -7 24 -16 7 -8 29 -24 48 -35 48 -26 98 -63 146 -107 22
-20 73 -65 113 -100 62 -55 198 -206 240 -268 40 -59 132 -223 132 -235 0 -6
9 -28 20 -48 11 -20 29 -70 40 -111 11 -41 25 -91 31 -110 15 -49 23 -423 11
-490 -13 -73 -50 -227 -64 -265 -6 -16 -19 -55 -30 -85 -17 -48 -80 -179 -158
-329 -46 -88 -120 -187 -202 -272 -75 -76 -116 -110 -216 -181 -18 -13 -64
-47 -102 -75 -39 -29 -73 -53 -76 -53 -3 0 -20 -10 -37 -22 -18 -13 -48 -31
-67 -41 -19 -10 -53 -29 -75 -42 -103 -62 -309 -175 -365 -200 -19 -9 -42 -20
-50 -25 -8 -6 -37 -22 -65 -35 -27 -14 -57 -29 -65 -34 -33 -19 -143 -71 -152
-71 -9 0 -80 -32 -194 -86 -28 -13 -56 -24 -62 -24 -6 0 -32 -11 -58 -25 -26
-14 -54 -25 -63 -25 -9 0 -34 -12 -56 -25 -22 -14 -47 -25 -55 -25 -8 0 -42
-14 -75 -30 -33 -17 -65 -30 -73 -30 -7 0 -30 -9 -50 -19 -20 -11 -57 -27 -82
-35 -95 -30 -147 -50 -196 -72 -28 -13 -60 -24 -70 -24 -10 0 -42 -11 -69 -24
-28 -12 -68 -26 -90 -30 -22 -4 -50 -14 -61 -21 -12 -8 -50 -21 -84 -30 -34
-9 -72 -22 -84 -30 -11 -7 -45 -18 -75 -24 -29 -6 -65 -18 -80 -26 -14 -8 -51
-21 -81 -29 -61 -16 -130 -39 -205 -68 -27 -11 -76 -26 -108 -34 -32 -8 -68
-20 -80 -28 -12 -8 -38 -17 -57 -21 -19 -4 -55 -18 -80 -31 -25 -13 -52 -24
-60 -24 -8 0 -36 -11 -62 -25 -26 -14 -53 -25 -60 -25 -8 0 -32 -9 -53 -21
-22 -11 -61 -27 -86 -35 -26 -8 -52 -21 -58 -28 -7 -8 -27 -18 -44 -22 -17 -3
-47 -17 -67 -30 -19 -12 -47 -26 -62 -29 -15 -4 -32 -13 -38 -20 -7 -8 -28
-19 -48 -26 -20 -6 -44 -17 -52 -24 -8 -7 -31 -21 -51 -31 -38 -20 -106 -59
-174 -99 -22 -13 -60 -36 -85 -50 -25 -14 -65 -41 -90 -60 -25 -19 -58 -42
-73 -50 -15 -9 -36 -24 -47 -33 -10 -9 -35 -28 -55 -42 -126 -85 -352 -296
-436 -407 -24 -32 -62 -81 -85 -108 -24 -28 -58 -79 -77 -115 -29 -55 -42 -68
-88 -93 -30 -15 -76 -33 -104 -39 -27 -6 -66 -18 -85 -28 -19 -10 -50 -21 -69
-25 -19 -4 -54 -18 -79 -31 -25 -13 -51 -24 -59 -24 -8 0 -35 -11 -61 -25 -26
-14 -52 -25 -57 -25 -12 0 -258 -122 -277 -137 -7 -6 -24 -14 -37 -18 -12 -4
-38 -17 -57 -29 -18 -11 -55 -34 -81 -50 -103 -62 -201 -127 -268 -177 -22
-16 -51 -37 -65 -46 -14 -10 -39 -29 -57 -43 -18 -14 -46 -36 -64 -50 -143
-112 -249 -214 -387 -375 -114 -132 -278 -367 -317 -455 -25 -54 -80 -171 -95
-200 -9 -19 -21 -53 -25 -75 -4 -21 -14 -53 -22 -70 -26 -49 -82 -267 -83
-320 0 -16 -7 -61 -15 -100 -25 -117 -36 -337 -25 -522 5 -93 14 -183 19 -201
5 -18 15 -84 21 -148 6 -64 18 -134 26 -157 8 -22 19 -72 25 -111 5 -39 18
-100 29 -136 10 -36 26 -92 34 -125 33 -133 65 -242 80 -277 9 -21 16 -46 16
-56 0 -10 9 -36 20 -57 12 -22 26 -60 32 -85 6 -25 16 -54 23 -66 7 -11 20
-43 28 -71 9 -28 22 -62 30 -75 32 -48 53 -179 82 -503 4 -38 13 -95 20 -125
7 -30 19 -91 25 -135 6 -44 17 -98 26 -121 8 -22 21 -77 29 -122 7 -44 20 -93
28 -109 8 -15 20 -52 26 -81 6 -29 17 -65 25 -80 7 -15 18 -49 25 -75 6 -27
20 -65 31 -85 11 -20 20 -44 20 -53 0 -9 11 -37 25 -63 14 -26 25 -53 25 -60
0 -6 11 -34 24 -62 14 -27 32 -65 41 -84 9 -19 29 -57 45 -85 16 -27 38 -69
49 -92 11 -24 29 -55 39 -70 11 -16 33 -50 50 -78 17 -27 36 -55 41 -61 5 -6
20 -28 35 -50 78 -117 147 -206 291 -373 128 -149 539 -517 641 -576 16 -8 47
-29 69 -46 84 -62 192 -130 245 -155 19 -9 42 -23 51 -30 9 -8 32 -23 50 -32
19 -10 43 -23 54 -29 18 -10 180 -88 310 -149 28 -13 57 -24 66 -24 8 0 32 -9
53 -20 21 -10 72 -26 113 -34 40 -9 83 -21 94 -26 11 -6 59 -17 108 -25 48 -8
103 -21 122 -29 19 -8 81 -19 139 -25 58 -6 130 -18 160 -26 30 -8 114 -20
185 -25 72 -6 211 -17 310 -25 99 -8 228 -15 287 -15 143 0 685 46 756 64 32
8 98 20 147 27 50 6 105 17 123 25 18 7 71 20 117 28 46 8 94 21 107 29 13 8
39 18 58 21 19 4 64 17 100 30 36 13 88 31 115 40 105 37 133 49 242 104 164
83 194 100 212 115 9 8 36 24 61 36 84 40 122 62 143 81 11 11 29 22 39 26 10
3 18 9 18 13 0 4 30 27 68 51 60 40 139 96 152 110 3 3 23 17 45 32 22 14 58
44 81 65 22 21 89 83 149 138 60 55 125 118 144 139 20 22 50 54 66 71 43 44
225 260 244 288 9 14 43 64 76 112 33 48 77 113 97 144 20 31 46 68 57 82 11
14 23 38 27 52 3 15 10 30 15 32 4 3 31 52 59 108 29 56 67 130 85 165 30 58
48 104 90 227 9 28 28 73 41 100 13 28 24 58 24 68 0 10 9 35 20 56 10 21 24
66 29 100 11 71 37 120 66 126 11 3 92 9 180 14 88 6 190 17 226 25 36 9 116
20 177 25 63 6 125 17 142 26 17 9 56 20 88 26 31 5 78 19 104 29 26 11 57 20
71 20 13 0 45 11 71 24 27 13 60 27 75 31 50 11 296 142 346 183 6 5 24 17 40
28 33 21 55 39 89 72 13 12 28 22 33 22 11 0 106 116 147 180 16 25 36 56 46
70 32 48 80 155 90 205 6 28 18 70 28 95 14 37 17 80 17 235 0 175 -2 198 -28
295 -15 58 -36 121 -46 140 -10 19 -22 49 -25 65 -12 49 -75 135 -157 215
-121 118 -156 143 -284 204 -133 63 -159 74 -195 81 -19 4 -51 15 -70 25 -19
10 -62 21 -95 25 -33 4 -85 16 -115 26 -30 11 -118 26 -195 34 -77 9 -160 20
-185 25 -25 6 -112 13 -195 16 -82 4 -157 10 -166 15 -15 8 -17 41 -21 286 -4
223 -8 286 -21 320 -9 23 -21 76 -26 117 -6 42 -20 92 -31 113 -11 21 -20 46
-20 56 0 21 -48 139 -85 208 -14 26 -25 52 -25 59 0 6 -11 26 -24 43 -13 18
-27 42 -30 53 -4 12 -15 29 -26 39 -11 10 -20 24 -20 30 0 7 -10 25 -22 41
-13 15 -27 38 -33 50 -13 30 -243 302 -325 385 -36 36 -101 95 -145 130 -177
143 -210 176 -195 194 7 8 18 15 24 15 7 0 30 9 51 20 22 12 60 26 85 32 25 6
61 19 80 28 19 10 51 21 70 25 19 4 55 18 80 30 25 13 56 28 70 34 14 6 32 15
40 20 8 5 78 40 155 77 77 37 148 74 158 82 9 9 25 20 35 26 10 6 33 20 51 31
18 11 48 31 67 45 18 14 50 36 69 50 124 85 318 265 395 366 19 25 40 51 45
58 41 47 135 187 135 202 0 6 8 18 18 28 11 9 25 35 31 59 7 23 19 49 26 57 7
8 18 33 25 55 7 22 19 50 26 62 8 13 21 55 29 95 9 39 20 76 25 83 11 13 30
125 30 176 0 19 -6 44 -14 55 -14 19 -15 19 -22 -1 -11 -33 -77 -168 -94 -195
-9 -14 -30 -45 -45 -70 -57 -91 -91 -137 -164 -225 -120 -144 -317 -330 -413
-391 -54 -34 -93 -60 -153 -104 -55 -40 -122 -80 -134 -80 -10 0 -116 -50
-151 -71 -8 -5 -31 -16 -50 -25 -50 -21 -73 -32 -90 -44 -14 -9 -95 -39 -225
-84 -27 -10 -81 -27 -120 -38 -38 -11 -75 -24 -81 -29 -11 -9 -118 -34 -274
-65 -41 -8 -111 -25 -155 -37 -100 -28 -214 -29 -268 -4 l-37 17 -10 -25 c-18
-47 -89 -59 -455 -75 -132 -6 -292 -15 -355 -20 -63 -6 -239 -17 -390 -25
-281 -15 -517 -40 -695 -76 -55 -11 -133 -24 -173 -29 -40 -6 -85 -16 -101
-24 -15 -8 -56 -20 -91 -26 -36 -7 -84 -20 -107 -31 -23 -10 -50 -19 -61 -19
-10 0 -41 -11 -68 -25 -41 -22 -71 -28 -179 -36 -71 -5 -155 -14 -185 -19 -30
-6 -136 -17 -235 -25 -99 -7 -193 -18 -208 -24 -37 -14 -46 -8 -39 25 6 34
134 169 214 226 33 24 67 50 77 59 17 16 93 62 151 91 19 10 42 22 50 27 31
20 147 71 161 71 8 0 35 11 61 25 26 14 54 25 63 25 9 0 37 11 63 24 26 13 69
27 96 31 28 4 70 15 95 25 25 9 68 21 95 25 28 4 70 15 96 25 25 10 81 23 124
30 43 6 96 18 118 26 21 7 85 18 142 24 57 6 126 17 152 25 27 7 90 18 139 24
50 6 115 20 146 30 30 11 91 23 135 26 72 6 234 48 309 80 17 7 56 18 88 24
31 6 67 16 80 22 12 7 54 21 92 30 83 21 182 53 245 80 25 10 65 23 90 30 25
6 50 15 56 20 6 5 33 16 60 24 27 8 67 24 89 35 21 11 46 20 55 20 8 0 33 11
55 25 22 13 46 25 54 25 8 0 44 14 80 31 140 66 297 142 311 150 8 5 38 20 65
34 28 14 68 36 90 50 22 13 58 34 80 45 22 12 65 37 95 55 30 19 71 43 90 55
42 25 103 65 160 105 23 17 53 37 65 45 23 15 200 159 241 195 12 11 48 43 80
70 65 55 84 75 264 265 69 73 129 139 134 148 5 10 21 31 35 49 77 95 231 302
231 310 0 3 10 20 23 37 12 17 28 42 35 56 7 14 28 50 47 80 37 60 59 98 99
174 14 26 29 53 34 60 5 6 15 29 22 51 7 22 21 54 31 71 11 17 19 38 19 45 0
8 14 41 30 74 16 33 30 66 30 74 0 7 9 28 19 45 11 17 24 59 30 92 5 33 17 78
25 99 9 21 23 81 32 132 8 51 20 106 26 121 16 36 23 460 10 527 -6 28 -18 88
-27 135 -9 47 -27 114 -39 150 -22 61 -36 103 -73 210 -9 25 -21 52 -28 60 -6
8 -31 56 -55 105 -25 50 -57 108 -73 130 -15 22 -53 78 -84 124 -50 74 -257
292 -340 358 -16 12 -44 34 -63 50 -75 61 -119 93 -125 93 -4 0 -20 10 -35 23
-44 35 -136 89 -295 171 -66 35 -133 66 -150 70 -16 4 -37 14 -45 21 -8 7 -35
18 -59 25 -24 6 -54 18 -65 25 -12 8 -43 19 -71 26 -27 6 -66 20 -87 30 -20
10 -56 21 -80 25 -23 4 -64 15 -90 25 -25 10 -70 21 -100 25 -29 4 -86 17
-126 30 -69 23 -171 32 -185 17z m-4866 -6000 c8 -21 7 -50 -5 -113 -24 -138
-28 -201 -16 -270 6 -36 17 -104 25 -152 8 -47 23 -106 33 -130 11 -23 23 -60
27 -81 4 -20 15 -47 25 -60 33 -42 34 -64 3 -93 -15 -15 -50 -38 -78 -51 -27
-13 -72 -37 -100 -53 -27 -16 -68 -38 -90 -50 -40 -20 -73 -41 -181 -115 -33
-22 -64 -42 -69 -45 -12 -6 -105 -79 -204 -160 -105 -86 -272 -253 -342 -342
-35 -44 -77 -97 -94 -118 -16 -20 -35 -46 -42 -56 -7 -11 -38 -57 -69 -104
-31 -46 -65 -100 -75 -120 -11 -19 -24 -42 -29 -50 -6 -8 -15 -26 -20 -40 -6
-14 -26 -50 -45 -80 -19 -30 -43 -74 -54 -96 -11 -23 -24 -45 -30 -48 -6 -4
-16 -26 -22 -49 -6 -23 -19 -52 -29 -65 -10 -12 -22 -37 -26 -55 -3 -18 -14
-43 -24 -57 -10 -14 -23 -42 -28 -64 -6 -21 -17 -46 -25 -55 -8 -9 -22 -38
-30 -66 -38 -121 -65 -189 -74 -192 -16 -6 -72 76 -84 122 -6 22 -18 51 -26
64 -15 23 -27 63 -66 211 -25 96 -41 241 -42 380 0 145 27 382 51 439 8 19 21
63 29 98 8 36 22 74 30 86 8 12 15 28 15 37 0 14 15 49 95 210 35 73 46 91
132 221 114 173 210 289 383 459 123 121 411 349 487 385 17 8 35 20 38 26 4
6 26 19 49 30 45 22 115 62 132 77 6 5 30 19 55 31 24 11 51 25 59 30 31 19
149 71 163 71 8 0 25 9 39 19 13 11 42 24 65 30 23 6 45 16 48 21 11 18 25 11
36 -17z m5111 -520 c191 -170 436 -444 523 -586 17 -26 42 -64 58 -84 15 -20
27 -41 27 -48 0 -6 9 -20 19 -29 11 -10 23 -31 26 -47 4 -15 14 -38 24 -51 10
-13 23 -38 29 -56 6 -18 20 -45 32 -59 11 -14 20 -35 20 -47 0 -12 9 -40 20
-61 12 -22 26 -60 32 -85 6 -25 17 -57 24 -72 8 -14 18 -59 24 -100 6 -40 17
-102 25 -138 27 -127 29 -282 6 -425 -12 -71 -24 -148 -27 -170 -4 -22 -14
-61 -24 -86 -10 -25 -21 -66 -25 -92 -4 -26 -15 -57 -25 -70 -9 -12 -20 -33
-24 -47 -13 -49 -119 -258 -136 -270 -4 -3 -15 -20 -24 -38 -9 -18 -30 -51
-47 -75 -16 -23 -41 -59 -54 -79 -18 -27 -32 -38 -50 -38 l-25 0 2 218 c1 143
-2 231 -10 257 -6 22 -18 88 -26 146 -8 58 -24 128 -34 155 -11 27 -22 68 -26
91 -3 23 -17 63 -31 89 -14 26 -25 53 -25 61 0 8 -9 31 -20 51 -11 20 -27 53
-35 72 -9 19 -29 58 -45 85 -16 28 -39 68 -50 90 -12 22 -35 58 -51 80 -29 39
-62 85 -96 135 -71 103 -351 387 -490 497 -61 49 -159 120 -212 155 -31 20
-69 46 -86 58 -62 42 -107 71 -138 86 -18 8 -54 28 -82 43 -56 32 -174 92
-250 126 -27 13 -80 37 -117 54 -37 17 -70 31 -75 31 -4 0 -28 11 -53 24 -25
13 -64 27 -87 31 -22 3 -49 12 -59 19 -17 13 -16 14 6 26 12 7 75 16 139 21
64 5 161 13 216 19 55 6 192 15 305 20 125 6 240 17 295 29 50 10 126 22 170
26 44 4 105 15 135 25 30 10 86 24 124 30 38 6 78 16 88 21 19 10 87 26 120
28 9 1 41 -20 70 -46z m999 -2578 c-4 -28 -4 -29 -14 -8 -5 12 -6 38 -2 60 l8
38 6 -30 c4 -16 5 -43 2 -60z m-43 -130 c-3 -31 -11 -60 -21 -70 -10 -9 -17
-33 -17 -53 -1 -20 -8 -55 -17 -77 -8 -22 -23 -67 -32 -101 -9 -33 -24 -73
-34 -87 -9 -14 -17 -33 -17 -40 0 -8 -11 -34 -24 -59 -13 -24 -27 -55 -31 -69
-8 -28 -46 -112 -81 -182 -13 -26 -24 -53 -24 -60 0 -7 -18 -46 -40 -87 -22
-41 -51 -97 -66 -125 -14 -27 -38 -72 -54 -100 -16 -27 -40 -72 -54 -100 -34
-65 -116 -212 -140 -250 -11 -17 -32 -50 -47 -75 -30 -47 -58 -88 -99 -145
-14 -19 -35 -49 -48 -67 -77 -109 -155 -208 -207 -262 -12 -12 -55 -61 -97
-111 -75 -89 -225 -239 -283 -283 -17 -12 -43 -33 -60 -45 -16 -13 -45 -29
-64 -36 -19 -6 -42 -17 -50 -25 -9 -7 -42 -21 -73 -30 -31 -9 -59 -20 -62 -25
-3 -5 -30 -14 -58 -21 -29 -7 -63 -19 -75 -26 -13 -8 -55 -21 -95 -28 -40 -8
-89 -21 -108 -29 -19 -8 -55 -18 -80 -22 -25 -3 -72 -15 -105 -25 -33 -11
-106 -24 -162 -30 -57 -6 -126 -18 -155 -27 -73 -22 -337 -21 -390 1 -20 9
-69 21 -109 27 -66 10 -113 27 -179 64 -14 8 -45 24 -69 35 -103 48 -281 224
-254 251 4 4 60 13 123 19 63 6 144 19 180 30 36 10 90 22 120 26 30 3 82 15
115 25 33 10 95 23 138 28 43 6 87 15 97 21 10 5 52 17 92 25 40 8 94 24 120
35 26 11 55 20 65 20 10 0 37 9 58 20 22 12 64 28 92 36 29 8 55 19 58 24 3 5
29 16 58 24 28 8 70 24 92 36 21 11 46 20 53 20 8 0 31 9 51 20 20 10 52 26
71 34 19 9 80 41 135 71 55 30 123 67 150 81 117 60 263 149 305 187 8 7 48
36 88 63 41 27 88 59 105 72 18 12 44 30 59 40 42 28 251 217 372 337 85 84
139 145 288 330 84 104 138 179 138 193 0 5 7 15 16 23 8 7 24 29 35 48 11 20
33 56 49 81 17 25 40 65 51 90 12 25 27 52 34 60 7 8 18 32 24 52 7 20 19 42
26 48 8 7 20 31 26 54 6 22 22 51 35 64 15 14 24 34 24 53 0 17 5 39 11 50 18
34 32 10 27 -46z m972 -451 c30 -8 79 -22 109 -31 122 -34 259 -137 317 -238
27 -47 29 -56 29 -165 -1 -109 -3 -119 -34 -185 -18 -38 -48 -93 -67 -121 -33
-51 -159 -184 -205 -216 -13 -9 -38 -29 -55 -42 -17 -14 -51 -35 -75 -46 -24
-11 -51 -24 -59 -29 -34 -22 -148 -71 -163 -71 -9 0 -45 -11 -79 -24 -105 -40
-218 -67 -322 -78 -54 -5 -121 -16 -150 -24 -113 -32 -754 -42 -809 -13 -27
15 -15 22 88 57 69 23 117 32 204 37 63 4 146 15 185 25 39 10 94 22 121 25
28 4 76 18 107 31 32 13 67 24 78 24 11 0 47 11 80 25 33 14 68 25 78 25 11 0
40 11 66 25 26 14 52 25 58 25 22 0 231 103 294 145 17 11 50 31 73 45 88 52
271 230 271 264 0 4 8 18 19 31 10 13 29 67 41 120 22 86 23 100 11 148 -8 28
-20 64 -27 79 l-14 27 -93 -92 c-121 -120 -123 -121 -318 -218 -19 -9 -64 -23
-99 -29 -35 -6 -76 -18 -91 -25 -15 -8 -88 -18 -175 -24 -82 -6 -179 -14 -215
-17 -59 -6 -69 -4 -88 15 -22 22 -24 51 -26 298 l0 57 50 29 c28 16 73 36 100
44 28 8 55 19 61 24 6 5 40 15 77 24 37 8 79 20 94 26 53 21 119 27 308 28
146 1 203 -3 245 -15z"/>
<path d="M19020 33830 c-11 -7 -9 -11 13 -19 15 -6 39 -14 53 -17 13 -3 27
-10 29 -15 3 -4 52 -31 108 -59 125 -63 153 -79 194 -108 17 -12 35 -22 41
-22 5 0 15 -7 23 -16 7 -8 30 -24 51 -35 21 -11 46 -26 56 -34 252 -205 329
-286 446 -466 13 -20 29 -52 35 -72 7 -19 18 -41 26 -47 8 -7 18 -28 21 -49 4
-20 18 -67 32 -106 24 -66 25 -81 24 -270 0 -187 -2 -205 -26 -278 -14 -43
-26 -85 -26 -93 0 -13 -23 -67 -69 -164 -7 -14 -23 -43 -36 -65 -13 -22 -32
-53 -41 -70 -9 -16 -29 -44 -43 -62 -14 -18 -37 -46 -51 -64 -29 -37 -248
-256 -282 -282 -13 -9 -48 -35 -78 -57 -72 -53 -94 -70 -133 -100 -52 -41
-112 -80 -124 -80 -6 0 -24 -10 -40 -23 -15 -12 -44 -30 -63 -40 -19 -10 -53
-28 -75 -41 -136 -79 -186 -106 -196 -106 -6 0 -32 -11 -58 -25 -25 -14 -62
-32 -81 -40 -19 -8 -42 -19 -50 -24 -15 -9 -72 -36 -215 -101 -38 -17 -87 -40
-107 -51 -20 -10 -43 -19 -51 -19 -8 0 -35 -11 -61 -25 -26 -14 -53 -25 -59
-25 -7 0 -39 -13 -72 -30 -33 -16 -66 -30 -73 -30 -7 0 -34 -11 -60 -25 -26
-14 -54 -25 -62 -25 -8 0 -33 -11 -55 -25 -22 -13 -47 -25 -55 -25 -8 0 -37
-11 -65 -25 -27 -13 -66 -31 -85 -40 -44 -20 -90 -43 -110 -55 -8 -5 -60 -33
-115 -61 -55 -28 -111 -57 -125 -65 -14 -7 -38 -20 -55 -28 -93 -47 -132 -67
-145 -76 -8 -6 -31 -17 -50 -26 -19 -9 -56 -28 -81 -42 -26 -15 -65 -37 -86
-49 -22 -12 -45 -29 -52 -37 -8 -9 -19 -16 -26 -16 -7 0 -29 -13 -50 -30 -21
-16 -42 -30 -47 -30 -6 0 -23 -10 -38 -22 -16 -13 -50 -36 -77 -52 -59 -35
-120 -74 -153 -96 -14 -9 -40 -25 -58 -34 -18 -9 -41 -24 -50 -32 -24 -21 -95
-75 -137 -104 -20 -14 -55 -40 -78 -58 -59 -46 -72 -56 -162 -122 -44 -32 -89
-67 -100 -77 -11 -10 -83 -72 -160 -137 -77 -65 -150 -128 -163 -140 -21 -19
-283 -280 -332 -331 -11 -12 -20 -31 -20 -43 0 -15 -6 -22 -20 -22 -11 0 -20
-7 -20 -15 0 -11 8 -10 36 8 19 12 43 27 52 32 10 6 26 18 37 28 30 26 134
108 188 147 27 19 57 42 66 50 61 54 235 177 362 255 17 10 34 22 127 84 119
79 139 92 177 112 22 12 63 34 90 50 28 16 73 40 100 55 28 14 73 38 100 54
28 16 70 39 95 50 25 12 52 27 60 34 8 8 32 19 52 25 20 7 41 18 47 25 6 8 31
19 56 26 25 7 50 19 56 26 6 8 17 14 24 14 7 0 39 13 71 29 32 15 91 43 129
60 39 18 87 41 107 52 20 10 43 19 50 19 8 0 40 13 73 30 33 16 69 30 80 30
11 0 38 12 60 25 22 14 46 25 54 25 8 0 33 9 55 19 39 19 106 44 206 78 25 8
70 26 101 39 31 13 64 24 73 24 9 0 31 7 47 16 17 8 61 26 97 38 100 35 132
46 187 68 28 11 74 26 104 35 30 8 63 20 75 28 11 7 39 17 61 21 22 4 62 18
90 30 27 13 59 24 70 24 11 0 43 11 70 24 28 12 68 26 90 30 22 4 50 14 62 21
11 8 43 20 70 26 26 7 64 20 83 30 20 9 54 20 75 24 22 4 54 15 71 25 17 10
47 21 65 25 19 4 52 18 75 31 22 13 48 24 56 24 8 0 36 11 62 25 26 14 53 25
60 25 7 0 34 11 60 25 26 14 52 25 59 25 6 0 34 11 62 24 119 57 224 110 280
141 33 18 71 39 85 45 23 11 95 58 160 105 15 11 40 29 56 40 127 87 326 282
374 364 34 59 85 141 107 171 17 24 39 78 69 170 8 25 20 59 26 75 28 78 37
119 55 235 13 85 17 146 13 190 -12 113 -41 254 -60 285 -9 17 -21 43 -24 59
-4 17 -16 41 -26 55 -10 14 -25 42 -34 61 -33 69 -53 99 -127 188 -41 49 -85
104 -99 122 -31 40 -298 265 -362 305 -26 17 -66 41 -89 55 -23 14 -56 34 -73
46 -62 40 -272 144 -293 144 -7 0 -33 11 -59 25 -26 14 -53 25 -61 25 -8 0
-35 11 -61 25 -26 14 -57 25 -70 25 -13 0 -56 11 -95 24 -40 14 -94 28 -122
32 -27 4 -72 15 -98 25 -51 20 -132 25 -157 9z"/>
<path d="M13011 25826 c-9 -10 -9 -16 -1 -21 17 -10 37 12 24 25 -8 8 -15 6
-23 -4z"/>
<path d="M12910 25737 c-36 -34 -99 -100 -140 -146 -41 -46 -86 -96 -100 -112
-14 -15 -38 -44 -55 -64 -16 -21 -42 -52 -56 -69 -31 -37 -105 -134 -181 -236
-31 -41 -66 -86 -77 -100 -42 -51 -77 -100 -106 -150 -16 -28 -42 -67 -57 -87
-16 -20 -28 -40 -28 -45 0 -6 -10 -23 -22 -38 -13 -15 -36 -51 -53 -80 -16
-29 -40 -64 -51 -78 -12 -15 -25 -38 -29 -52 -4 -14 -13 -32 -20 -40 -8 -8
-23 -35 -34 -60 -34 -73 -130 -253 -141 -264 -5 -5 -10 -17 -10 -25 0 -9 -7
-29 -16 -46 -16 -29 -36 -79 -87 -218 -14 -37 -30 -73 -35 -80 -5 -7 -13 -28
-17 -47 -4 -19 -15 -53 -26 -76 -10 -22 -23 -71 -30 -110 -6 -38 -17 -80 -24
-94 -8 -14 -18 -55 -25 -90 -6 -36 -19 -90 -29 -120 -11 -32 -22 -102 -26
-165 -3 -60 -15 -164 -26 -230 -18 -105 -20 -145 -14 -320 4 -110 13 -249 20
-310 7 -60 16 -139 20 -175 3 -36 13 -89 21 -119 9 -30 22 -89 29 -132 8 -43
20 -91 28 -106 9 -16 20 -54 26 -85 5 -32 17 -71 26 -87 8 -17 20 -54 26 -83
6 -29 20 -67 30 -84 10 -17 19 -37 19 -44 0 -8 14 -43 31 -79 17 -36 41 -88
54 -116 13 -27 27 -61 30 -75 4 -14 13 -31 19 -39 11 -14 39 -65 76 -138 11
-23 25 -45 30 -48 5 -3 19 -25 30 -48 39 -77 76 -138 158 -251 25 -35 69 -98
92 -130 46 -66 164 -213 194 -241 6 -5 40 -44 76 -84 100 -116 400 -407 460
-448 14 -9 64 -49 112 -88 48 -38 108 -86 134 -105 25 -19 51 -39 58 -45 25
-22 93 -71 118 -85 14 -8 39 -24 55 -34 135 -92 232 -155 267 -174 22 -12 64
-36 91 -52 28 -16 68 -38 90 -50 22 -12 63 -34 90 -49 64 -37 171 -90 260
-131 67 -30 109 -50 228 -104 105 -50 166 -74 198 -81 19 -4 48 -15 64 -25 17
-9 50 -22 75 -28 25 -6 63 -20 85 -32 21 -11 47 -20 58 -20 10 0 36 -9 58 -20
22 -12 65 -26 97 -31 31 -6 69 -17 84 -25 15 -8 59 -21 98 -29 39 -8 83 -21
98 -29 15 -7 47 -17 72 -21 25 -4 70 -15 100 -26 30 -10 89 -23 130 -28 41 -6
94 -17 116 -25 23 -8 77 -19 120 -26 44 -6 99 -17 124 -25 25 -8 114 -21 199
-30 85 -9 157 -18 162 -20 20 -13 126 -25 298 -35 104 -5 247 -17 317 -25 149
-17 575 -20 754 -5 63 6 232 19 376 30 143 11 290 26 325 34 35 8 100 17 144
21 44 4 116 15 160 25 44 10 114 23 155 29 41 5 94 17 117 25 24 8 79 20 124
26 45 6 102 19 128 29 25 10 68 22 96 26 27 4 62 14 78 22 16 8 63 21 104 29
42 8 82 19 88 24 6 5 40 17 76 26 35 9 73 21 84 27 11 6 47 19 80 28 99 29
202 67 227 82 13 8 39 18 58 22 19 4 49 15 65 25 17 10 50 24 75 30 25 7 52
18 60 25 8 7 33 18 55 25 22 7 51 21 64 31 13 11 30 19 38 19 8 0 36 11 62 25
25 14 62 32 81 40 44 20 91 43 110 56 8 5 38 20 67 34 28 13 54 28 57 34 4 5
23 15 44 22 20 6 46 19 57 28 11 10 31 23 45 29 14 7 45 26 70 42 25 16 65 41
90 55 48 27 103 63 166 107 22 15 73 51 116 80 73 50 156 112 224 168 18 14
44 34 59 45 77 58 227 196 405 375 151 150 333 354 393 440 10 14 31 43 47 65
58 77 191 281 218 335 8 14 26 48 42 75 28 49 80 152 142 285 17 36 38 81 48
100 10 19 21 51 25 70 4 19 16 51 26 70 17 33 25 56 64 178 9 26 23 67 31 92
9 25 22 74 30 109 8 35 21 76 29 91 8 15 19 61 25 102 6 40 20 100 30 133 10
33 22 87 25 120 4 33 15 98 25 145 11 47 24 146 30 220 6 74 17 181 25 236 16
108 20 525 6 599 l-7 40 -8 -30 c-4 -16 -18 -52 -32 -81 -13 -28 -28 -84 -34
-125 -5 -41 -16 -94 -25 -119 -9 -25 -22 -72 -30 -105 -7 -33 -20 -80 -29
-105 -9 -25 -22 -65 -30 -90 -27 -84 -57 -165 -77 -206 -10 -22 -19 -47 -19
-55 0 -8 -14 -41 -30 -74 -17 -33 -30 -65 -30 -71 0 -6 -7 -17 -15 -24 -8 -7
-20 -31 -26 -54 -6 -22 -17 -48 -24 -56 -8 -8 -23 -35 -35 -60 -11 -25 -34
-67 -50 -95 -16 -27 -38 -68 -50 -90 -11 -22 -32 -56 -45 -75 -14 -19 -30 -42
-35 -50 -6 -8 -29 -44 -53 -80 -23 -36 -69 -100 -102 -144 -33 -43 -67 -88
-75 -100 -8 -12 -24 -32 -35 -44 -11 -12 -31 -36 -45 -53 -14 -17 -34 -41 -45
-53 -11 -11 -40 -43 -64 -71 -92 -106 -190 -201 -306 -298 -66 -55 -127 -108
-135 -117 -33 -36 -196 -168 -241 -195 -10 -5 -56 -37 -104 -70 -48 -33 -95
-64 -103 -70 -71 -45 -119 -77 -132 -87 -27 -24 -123 -78 -147 -84 -13 -4 -26
-10 -28 -15 -3 -4 -52 -31 -108 -59 -56 -29 -158 -80 -227 -116 -68 -35 -129
-64 -136 -64 -6 0 -31 -11 -56 -24 -25 -13 -60 -27 -79 -31 -19 -4 -47 -15
-64 -25 -16 -10 -49 -23 -73 -30 -24 -6 -58 -20 -75 -31 -18 -10 -39 -19 -47
-19 -9 0 -34 -9 -55 -21 -22 -11 -65 -25 -95 -30 -30 -6 -67 -17 -82 -25 -15
-8 -59 -21 -98 -29 -39 -8 -83 -21 -98 -29 -15 -7 -47 -17 -72 -21 -25 -4 -64
-15 -88 -26 -23 -10 -79 -23 -122 -29 -44 -6 -99 -17 -121 -25 -23 -8 -82 -20
-133 -26 -50 -6 -109 -17 -131 -25 -22 -8 -87 -19 -145 -25 -58 -5 -146 -17
-197 -24 -218 -34 -331 -39 -838 -39 -488 0 -797 12 -890 34 -22 5 -112 17
-200 25 -88 9 -185 22 -215 30 -30 8 -94 19 -141 25 -48 6 -109 17 -135 25
-27 8 -85 20 -129 26 -43 6 -94 17 -112 24 -19 8 -62 19 -96 25 -34 6 -89 19
-122 30 -33 10 -86 24 -117 30 -32 6 -60 15 -63 20 -3 5 -36 15 -73 24 -38 8
-89 24 -113 36 -24 11 -55 20 -69 20 -14 0 -47 11 -75 25 -27 13 -57 25 -66
25 -9 0 -36 11 -61 24 -25 13 -60 27 -79 31 -19 4 -48 16 -65 26 -17 10 -38
19 -46 19 -8 0 -36 11 -64 24 -27 13 -85 40 -129 60 -44 21 -88 42 -97 47 -10
5 -26 13 -35 18 -134 66 -178 89 -233 122 -36 21 -78 46 -95 54 -60 32 -124
71 -206 128 -46 32 -110 74 -142 95 -54 34 -251 192 -377 300 -61 53 -321 313
-363 364 -15 18 -55 67 -87 108 -33 41 -69 86 -80 100 -42 51 -61 76 -95 127
-19 29 -35 55 -35 59 0 3 -10 19 -22 34 -13 15 -36 51 -53 80 -16 29 -39 64
-50 78 -23 29 -218 423 -255 512 -12 30 -29 78 -37 105 -9 28 -22 59 -28 70
-7 11 -18 44 -24 73 -6 29 -18 63 -26 75 -8 13 -19 54 -24 93 -6 38 -17 89
-26 114 -8 24 -20 75 -26 114 -6 39 -19 96 -29 126 -11 34 -21 103 -25 180 -4
69 -11 154 -16 190 -5 36 -14 97 -19 135 -21 142 17 685 60 870 10 44 21 112
25 150 4 39 15 89 25 112 10 23 23 66 30 96 6 30 20 72 30 93 11 21 20 50 20
64 0 14 9 43 20 65 11 21 25 54 31 74 6 20 20 52 30 71 10 19 23 52 29 72 6
21 16 41 22 44 5 3 18 25 28 48 11 22 26 52 35 66 8 14 20 36 25 50 6 14 24
43 40 65 17 22 39 57 51 78 11 21 29 47 40 58 20 20 22 50 4 56 -5 1 -39 -25
-75 -60z"/>
<path d="M24307 22438 c-19 -31 -23 -330 -4 -368 6 -14 31 -34 53 -46 23 -11
54 -31 69 -42 15 -12 35 -22 45 -22 9 0 25 -9 34 -19 10 -11 32 -25 49 -32 18
-7 39 -18 47 -24 8 -7 51 -31 95 -55 43 -23 90 -50 103 -61 14 -10 33 -19 42
-19 10 0 24 -7 31 -16 7 -9 32 -26 55 -38 83 -41 213 -117 219 -126 3 -5 22
-14 43 -21 20 -6 46 -19 57 -29 11 -10 36 -25 55 -34 19 -9 76 -41 125 -71 50
-30 113 -66 140 -80 51 -26 76 -41 230 -130 48 -27 107 -62 133 -77 26 -15 67
-37 92 -49 25 -12 52 -28 60 -35 9 -7 47 -30 85 -50 39 -20 81 -45 94 -55 13
-11 29 -19 37 -19 7 0 25 -11 41 -24 15 -13 39 -27 53 -31 14 -4 32 -13 40
-20 8 -7 51 -32 95 -56 44 -23 91 -50 104 -61 13 -10 29 -18 37 -18 7 0 25
-11 41 -24 15 -13 39 -27 53 -31 14 -4 32 -13 40 -20 8 -7 51 -32 95 -56 44
-23 91 -50 104 -61 13 -10 29 -18 36 -18 7 0 29 -13 50 -30 21 -16 42 -30 47
-30 10 0 58 -32 109 -75 20 -16 54 -41 74 -55 165 -112 517 -463 631 -630 13
-19 40 -55 59 -80 19 -25 42 -61 51 -80 9 -19 23 -43 31 -52 15 -17 34 -49 73
-125 12 -23 28 -47 36 -54 8 -6 14 -19 14 -29 0 -9 11 -33 23 -52 13 -19 27
-48 31 -64 4 -16 17 -49 30 -74 13 -25 26 -58 30 -74 4 -15 15 -40 25 -55 11
-14 22 -44 25 -67 3 -22 14 -61 25 -85 11 -24 23 -66 27 -94 4 -27 15 -70 26
-94 10 -25 23 -85 28 -135 5 -50 17 -118 27 -151 16 -57 17 -327 20 -4903 l3
-4843 -21 -97 c-11 -53 -24 -136 -29 -183 -4 -51 -17 -106 -30 -135 -12 -27
-24 -71 -27 -99 -3 -27 -14 -66 -23 -85 -10 -19 -23 -59 -29 -88 -6 -30 -18
-64 -26 -75 -9 -12 -20 -40 -26 -62 -6 -21 -19 -50 -30 -63 -10 -14 -19 -33
-19 -44 0 -28 -99 -223 -138 -273 -12 -15 -22 -32 -22 -38 0 -6 -11 -27 -23
-46 -13 -20 -38 -58 -55 -86 -32 -52 -45 -69 -108 -145 -20 -25 -55 -70 -77
-100 -43 -59 -375 -400 -390 -400 -9 0 -24 -11 -137 -100 -108 -85 -142 -110
-155 -110 -7 0 -20 -9 -30 -20 -10 -12 -37 -30 -59 -41 -23 -11 -59 -31 -81
-44 -22 -14 -59 -34 -81 -45 -23 -11 -47 -26 -53 -34 -7 -8 -24 -17 -38 -21
-15 -3 -40 -17 -56 -31 -16 -13 -34 -24 -41 -24 -8 0 -24 -8 -37 -19 -13 -10
-60 -37 -104 -60 -44 -24 -87 -48 -95 -56 -8 -7 -26 -16 -40 -20 -14 -4 -33
-15 -44 -24 -10 -9 -35 -25 -57 -36 -73 -38 -214 -118 -229 -130 -8 -7 -26
-16 -40 -20 -14 -4 -33 -15 -44 -24 -10 -9 -35 -25 -57 -36 -73 -38 -214 -118
-229 -130 -8 -7 -26 -16 -40 -20 -14 -4 -33 -15 -44 -24 -10 -9 -35 -25 -57
-36 -73 -38 -214 -118 -229 -130 -8 -7 -26 -16 -40 -20 -14 -4 -33 -15 -44
-24 -10 -9 -35 -25 -57 -36 -36 -19 -177 -99 -278 -157 -25 -15 -62 -34 -81
-43 -19 -9 -44 -25 -55 -35 -11 -10 -30 -21 -43 -25 -13 -4 -38 -16 -55 -27
-82 -52 -203 -119 -223 -124 -12 -3 -32 -17 -45 -30 -12 -13 -30 -24 -39 -24
-10 0 -28 -8 -41 -19 -13 -10 -39 -27 -58 -37 -19 -10 -55 -31 -80 -46 -25
-15 -68 -37 -96 -51 -27 -13 -56 -31 -64 -40 -7 -10 -21 -17 -31 -17 -9 0 -29
-9 -44 -21 -15 -11 -57 -37 -94 -56 -37 -20 -76 -44 -88 -54 -11 -11 -27 -19
-36 -19 -8 0 -34 -13 -56 -30 -23 -16 -48 -30 -56 -30 -7 0 -25 -9 -40 -21
-15 -11 -57 -37 -94 -56 -37 -20 -78 -44 -91 -54 -13 -11 -29 -19 -37 -19 -7
0 -25 -11 -41 -23 -15 -13 -43 -29 -62 -36 -19 -6 -42 -18 -51 -26 -9 -8 -47
-31 -85 -51 -39 -20 -81 -45 -94 -55 -13 -11 -29 -19 -37 -19 -7 0 -25 -11
-41 -24 -15 -13 -39 -27 -53 -31 -14 -4 -38 -17 -55 -29 -16 -12 -41 -27 -55
-34 -14 -6 -47 -25 -75 -42 -27 -16 -68 -38 -90 -48 -22 -11 -46 -26 -53 -35
-8 -9 -26 -19 -42 -22 -16 -3 -34 -13 -42 -22 -7 -9 -31 -24 -53 -34 -22 -10
-62 -32 -90 -49 -27 -16 -68 -38 -90 -48 -22 -11 -46 -27 -54 -36 -7 -9 -22
-16 -31 -16 -10 0 -31 -11 -47 -24 -15 -13 -44 -31 -63 -40 -19 -9 -57 -30
-85 -46 -27 -16 -68 -38 -90 -48 -22 -11 -46 -27 -54 -36 -7 -9 -21 -16 -31
-16 -9 0 -30 -10 -45 -22 -16 -13 -47 -33 -69 -45 -23 -12 -59 -31 -81 -43
-22 -11 -62 -34 -90 -50 -27 -16 -68 -38 -90 -48 -22 -11 -46 -26 -53 -35 -8
-9 -26 -19 -42 -22 -16 -3 -34 -13 -42 -22 -7 -9 -31 -24 -53 -35 -22 -10 -62
-32 -90 -48 -27 -17 -68 -39 -90 -49 -22 -10 -46 -25 -53 -34 -8 -9 -26 -19
-42 -22 -16 -3 -34 -13 -42 -22 -7 -9 -31 -24 -53 -35 -22 -10 -62 -32 -90
-48 -27 -17 -68 -39 -90 -49 -22 -10 -46 -25 -53 -34 -8 -9 -26 -19 -42 -22
-16 -3 -34 -13 -42 -22 -7 -9 -31 -24 -53 -35 -56 -27 -129 -68 -135 -78 -3
-4 -16 -11 -30 -15 -14 -4 -38 -17 -55 -30 -16 -12 -41 -26 -55 -30 -14 -4
-38 -18 -53 -31 -16 -13 -34 -24 -41 -24 -8 0 -24 -8 -37 -19 -13 -10 -55 -35
-94 -56 -38 -20 -77 -43 -86 -51 -8 -7 -31 -19 -50 -25 -19 -7 -47 -23 -62
-36 -16 -12 -34 -23 -41 -23 -8 0 -24 -8 -37 -19 -13 -10 -55 -35 -93 -55 -37
-20 -80 -45 -93 -56 -14 -11 -33 -20 -42 -20 -10 0 -27 -9 -38 -19 -11 -11
-41 -30 -66 -43 -81 -40 -217 -119 -222 -128 -3 -5 -18 -11 -34 -15 -16 -3
-35 -13 -42 -22 -7 -8 -36 -26 -64 -39 -27 -14 -72 -38 -100 -54 -78 -44 -193
-100 -207 -100 -7 0 -34 -11 -60 -25 -26 -14 -54 -25 -63 -25 -8 0 -41 -13
-72 -30 -31 -16 -66 -30 -78 -30 -12 0 -42 -9 -66 -19 -24 -11 -71 -24 -104
-29 -33 -6 -84 -20 -113 -31 -29 -12 -72 -21 -95 -21 -23 0 -95 -11 -160 -25
-112 -24 -133 -25 -455 -25 -300 0 -348 2 -432 20 -52 12 -132 25 -177 30 -45
5 -95 16 -112 25 -17 8 -64 22 -104 29 -72 14 -130 32 -222 68 -27 11 -70 27
-95 36 -25 8 -57 24 -72 34 -14 10 -35 18 -46 18 -19 0 -168 72 -186 91 -6 5
-17 9 -27 9 -9 0 -33 14 -54 30 -21 17 -46 30 -55 30 -10 0 -24 7 -31 16 -8 9
-32 25 -54 36 -22 10 -62 32 -90 48 -27 16 -68 38 -90 48 -22 11 -46 26 -53
35 -8 9 -26 19 -42 22 -16 3 -34 13 -42 22 -7 9 -31 24 -53 35 -22 10 -62 32
-90 48 -27 16 -68 38 -90 48 -22 11 -46 26 -53 35 -8 9 -26 19 -42 22 -16 3
-34 13 -42 22 -7 9 -31 24 -53 35 -22 11 -62 32 -90 49 -27 16 -63 35 -80 43
-16 8 -41 23 -55 34 -14 10 -36 23 -50 27 -14 4 -34 15 -45 25 -11 10 -36 26
-55 35 -19 9 -57 29 -85 45 -27 16 -69 39 -92 51 -23 11 -47 27 -54 35 -6 8
-19 14 -29 14 -9 0 -34 14 -55 30 -21 17 -46 30 -55 30 -10 0 -24 7 -31 17 -8
9 -32 25 -54 35 -22 10 -69 36 -104 58 -34 22 -68 40 -75 40 -6 0 -29 14 -50
30 -22 17 -47 30 -56 30 -9 0 -25 9 -34 19 -10 11 -32 25 -49 32 -18 7 -39 18
-47 25 -8 6 -46 28 -84 48 -37 20 -80 45 -94 56 -14 11 -37 23 -51 27 -14 3
-38 16 -53 29 -16 12 -38 26 -50 29 -13 4 -30 13 -38 20 -8 7 -46 30 -85 50
-38 20 -77 43 -85 50 -8 7 -31 20 -50 30 -39 18 -107 56 -235 130 -155 90
-179 104 -230 130 -27 14 -90 50 -140 80 -49 30 -108 63 -130 73 -22 11 -46
26 -53 35 -8 9 -27 19 -43 22 -16 4 -31 10 -34 15 -5 8 -146 89 -234 135 -22
11 -47 27 -57 36 -11 9 -30 20 -44 24 -14 4 -32 13 -40 20 -15 12 -156 92
-229 130 -22 11 -47 27 -57 36 -11 9 -30 20 -44 24 -14 4 -32 13 -40 20 -8 7
-51 32 -95 56 -44 23 -91 50 -104 61 -13 10 -29 18 -37 18 -7 0 -25 11 -41 24
-15 13 -39 27 -53 31 -14 4 -34 15 -45 24 -11 10 -54 34 -95 55 -41 21 -86 47
-99 57 -13 11 -29 19 -37 19 -7 0 -26 11 -42 25 -17 14 -36 25 -45 25 -8 0
-31 14 -52 30 -21 17 -46 30 -56 30 -10 0 -21 5 -24 10 -4 6 -27 22 -53 36
-26 13 -69 38 -97 54 -27 16 -68 37 -90 48 -22 11 -46 26 -53 35 -8 9 -26 19
-42 22 -16 3 -34 13 -42 22 -7 9 -31 24 -53 34 -22 11 -62 32 -90 49 -27 17
-68 38 -90 49 -22 10 -46 25 -53 34 -8 9 -26 19 -42 22 -16 3 -34 13 -42 22
-7 9 -31 24 -53 35 -22 10 -58 29 -80 43 -22 13 -60 34 -84 46 -25 12 -53 30
-64 40 -11 10 -32 21 -48 24 -15 4 -33 13 -41 22 -7 9 -31 24 -53 35 -22 10
-58 29 -80 43 -22 13 -59 33 -81 45 -23 11 -47 26 -53 34 -7 8 -29 20 -49 27
-20 6 -46 19 -57 29 -11 10 -36 25 -55 34 -19 9 -53 28 -75 41 -22 14 -56 32
-75 42 -19 10 -48 28 -63 40 -16 13 -35 23 -43 23 -9 0 -30 11 -47 24 -18 13
-48 31 -67 40 -19 9 -53 28 -75 41 -22 14 -56 32 -75 42 -19 10 -48 28 -63 40
-16 13 -37 23 -47 23 -9 0 -24 7 -31 16 -7 9 -33 26 -59 39 -25 12 -65 34 -90
49 -25 14 -61 34 -80 43 -19 10 -48 28 -63 40 -16 13 -37 23 -47 23 -9 0 -24
7 -31 16 -7 9 -33 26 -59 39 -25 12 -88 47 -140 78 -52 31 -113 66 -135 77
-22 11 -58 34 -80 50 -22 17 -51 38 -65 47 -14 9 -47 36 -75 58 -27 23 -79 62
-115 86 -85 58 -406 378 -423 422 -3 8 -39 54 -80 103 -41 49 -82 103 -91 119
-9 17 -30 50 -46 75 -16 25 -36 61 -45 80 -9 19 -24 44 -34 55 -10 11 -22 31
-26 45 -4 14 -18 38 -31 53 -13 16 -24 37 -24 46 0 10 -9 29 -19 43 -11 13
-22 41 -26 61 -4 20 -16 48 -26 61 -11 13 -19 30 -19 38 0 7 -14 42 -30 76
-17 35 -30 75 -30 88 0 13 -11 48 -24 77 -13 30 -27 78 -31 107 -4 29 -16 73
-28 98 -12 29 -23 82 -27 142 -4 52 -17 139 -29 192 l-21 97 3 4803 c2 4551 3
4806 20 4863 10 33 22 105 27 160 5 61 17 118 29 145 11 25 24 73 30 107 5 34
17 75 25 92 9 17 19 51 23 77 3 25 17 61 29 80 13 19 24 45 24 57 0 12 11 40
25 62 13 22 25 47 25 55 0 8 13 42 29 75 16 33 32 67 36 75 3 8 21 40 40 70
19 30 42 71 51 90 9 19 27 48 40 63 13 16 24 33 24 37 0 16 121 180 227 309
80 98 357 370 415 409 21 13 38 29 38 33 0 5 6 9 14 9 8 0 43 24 78 53 72 60
156 117 173 117 6 0 22 11 35 25 13 14 31 25 40 25 10 0 30 10 45 22 30 24 65
44 130 75 22 11 46 27 54 36 7 10 21 17 31 17 9 0 34 14 55 30 21 17 45 30 53
30 8 0 29 10 46 23 17 12 42 28 56 35 14 7 48 26 75 42 28 16 68 38 90 48 22
11 46 26 53 35 8 9 26 19 42 22 16 3 34 13 42 22 7 9 31 24 53 35 22 10 63 32
90 48 28 16 68 38 90 48 22 11 46 26 53 35 8 9 26 19 42 22 16 3 34 13 42 22
7 9 31 24 53 35 22 10 63 32 90 48 28 16 68 38 90 48 22 11 46 26 53 35 8 9
26 19 42 22 16 3 34 13 42 22 7 9 31 24 53 35 22 10 63 32 90 49 28 16 64 36
80 43 17 8 41 23 55 34 14 10 36 23 50 27 14 4 34 15 45 25 11 10 36 25 55 34
19 9 58 30 85 46 28 17 69 39 92 51 23 11 47 27 54 35 6 8 20 14 29 14 10 0
31 11 47 24 15 13 44 31 63 40 45 21 123 67 143 85 29 24 30 72 3 182 -14 57
-26 121 -26 142 0 44 -30 81 -57 69 -24 -9 -114 -62 -133 -78 -8 -6 -26 -15
-40 -19 -14 -4 -38 -18 -53 -31 -16 -13 -37 -24 -47 -24 -9 0 -24 -7 -31 -16
-7 -9 -32 -26 -55 -38 -79 -40 -219 -119 -243 -138 -13 -10 -31 -18 -39 -18
-9 0 -24 -8 -35 -17 -10 -10 -36 -27 -58 -38 -73 -38 -214 -118 -229 -130 -8
-7 -26 -16 -40 -20 -14 -4 -33 -15 -44 -24 -10 -9 -35 -25 -57 -36 -88 -46
-229 -127 -234 -135 -3 -5 -18 -11 -34 -15 -16 -3 -39 -17 -51 -31 -13 -13
-31 -24 -40 -24 -10 0 -28 -8 -41 -18 -13 -11 -64 -41 -113 -68 -48 -27 -109
-61 -135 -76 -25 -15 -64 -35 -86 -46 -22 -11 -46 -27 -54 -36 -7 -9 -18 -16
-23 -16 -8 0 -83 -41 -206 -112 -26 -15 -65 -35 -87 -46 -22 -11 -46 -27 -54
-36 -7 -9 -18 -16 -24 -16 -5 0 -42 -19 -81 -41 -74 -43 -123 -71 -203 -115
-27 -14 -50 -29 -53 -33 -3 -4 -32 -22 -65 -40 -33 -19 -74 -45 -91 -60 -17
-14 -46 -38 -64 -53 -17 -16 -36 -28 -40 -28 -7 0 -84 -59 -173 -132 -144
-120 -460 -454 -523 -553 -10 -16 -21 -32 -24 -35 -27 -26 -130 -173 -130
-186 0 -6 -13 -28 -30 -49 -16 -21 -30 -45 -30 -53 0 -9 -9 -25 -19 -36 -10
-12 -35 -50 -53 -86 -19 -36 -45 -81 -56 -100 -12 -19 -22 -42 -22 -50 0 -8
-14 -42 -30 -75 -16 -33 -30 -67 -30 -76 0 -9 -8 -27 -19 -40 -10 -13 -22 -39
-26 -58 -4 -19 -18 -54 -31 -79 -13 -25 -24 -60 -24 -78 0 -18 -9 -54 -21 -81
-11 -26 -25 -73 -30 -104 -5 -31 -17 -76 -28 -100 -10 -24 -22 -82 -25 -129
-4 -47 -14 -114 -22 -150 -9 -36 -20 -134 -25 -218 -6 -94 -8 -1994 -6 -4910
l3 -4757 22 -80 c12 -44 25 -120 28 -170 4 -57 14 -104 26 -127 10 -21 21 -59
24 -85 3 -27 17 -76 30 -111 13 -34 24 -74 24 -88 0 -25 36 -118 85 -220 14
-28 25 -60 25 -71 0 -11 9 -31 19 -45 11 -13 23 -38 27 -54 9 -36 62 -142 85
-169 9 -11 20 -31 24 -45 4 -14 18 -38 31 -53 13 -16 24 -32 24 -37 0 -5 10
-25 23 -44 12 -19 36 -58 52 -86 17 -29 64 -94 105 -145 41 -52 86 -110 100
-130 44 -64 92 -117 260 -282 158 -155 246 -233 263 -233 5 0 45 -31 90 -69
45 -38 96 -77 113 -87 17 -11 60 -38 95 -61 34 -24 68 -43 74 -43 7 0 20 -9
29 -19 10 -11 32 -25 49 -32 18 -7 39 -18 47 -24 8 -7 51 -31 95 -55 43 -23
90 -50 103 -61 14 -10 31 -19 39 -19 8 0 28 -11 45 -25 16 -14 35 -25 42 -25
8 0 24 -8 37 -19 13 -10 55 -35 94 -55 38 -20 76 -43 85 -51 9 -8 32 -20 51
-26 19 -7 47 -23 62 -36 16 -12 34 -23 41 -23 8 0 24 -8 37 -19 13 -10 55 -35
94 -55 38 -20 76 -43 85 -50 8 -7 35 -23 60 -35 45 -22 65 -33 225 -126 48
-27 107 -62 133 -77 26 -15 67 -37 92 -49 25 -12 52 -27 60 -34 8 -8 47 -30
85 -50 39 -21 81 -46 94 -56 13 -11 31 -19 41 -19 9 0 27 -11 39 -24 13 -13
35 -27 49 -31 15 -4 34 -13 42 -20 8 -7 51 -32 95 -56 44 -23 91 -50 104 -61
13 -10 29 -18 37 -18 7 0 25 -11 41 -24 15 -13 39 -27 53 -31 14 -4 32 -13 40
-20 15 -12 156 -92 229 -130 22 -11 47 -27 57 -36 11 -9 30 -20 44 -24 14 -4
38 -18 53 -31 16 -13 33 -24 37 -24 9 0 70 -33 188 -102 26 -15 63 -34 82 -43
19 -9 44 -25 55 -35 11 -10 31 -21 45 -25 14 -4 36 -17 50 -27 14 -11 39 -26
55 -34 17 -8 53 -27 80 -44 28 -16 66 -36 85 -45 19 -9 44 -25 55 -35 11 -10
31 -21 45 -25 14 -4 36 -17 50 -27 14 -11 39 -26 55 -34 17 -8 53 -27 80 -43
28 -17 68 -38 90 -49 22 -11 46 -26 53 -35 8 -9 26 -19 42 -22 16 -3 34 -13
42 -22 7 -9 31 -24 53 -35 22 -10 63 -31 90 -48 28 -16 68 -37 90 -48 22 -11
46 -26 53 -35 8 -9 26 -19 42 -22 16 -3 34 -13 42 -22 7 -9 31 -24 53 -34 22
-11 63 -32 90 -49 28 -17 68 -38 90 -49 22 -10 46 -25 53 -34 8 -9 26 -19 42
-22 16 -3 34 -13 42 -22 7 -9 31 -24 53 -35 22 -10 63 -32 90 -48 28 -17 61
-36 75 -42 14 -7 38 -23 53 -35 16 -13 37 -23 47 -23 10 0 31 -11 47 -24 15
-13 44 -31 63 -40 19 -9 58 -30 85 -46 28 -17 61 -36 75 -42 14 -7 38 -23 53
-35 16 -13 37 -23 46 -23 10 0 35 -13 56 -30 21 -16 46 -30 55 -30 10 0 23 -7
30 -16 8 -8 30 -23 49 -33 78 -40 114 -61 130 -74 9 -8 27 -18 41 -22 14 -4
34 -15 45 -25 11 -10 38 -27 60 -38 22 -10 63 -32 90 -47 28 -16 65 -36 84
-46 18 -10 41 -24 50 -32 9 -8 27 -18 41 -22 14 -4 34 -15 45 -25 11 -10 36
-25 55 -34 19 -9 58 -29 85 -46 28 -16 71 -41 97 -55 26 -13 49 -29 52 -34 4
-5 19 -12 35 -16 16 -3 35 -13 43 -22 7 -9 31 -24 53 -35 22 -11 61 -31 87
-46 123 -71 198 -112 206 -112 5 0 16 -7 23 -16 8 -9 32 -25 54 -36 22 -11 61
-31 86 -46 26 -15 87 -49 135 -76 49 -27 100 -57 113 -68 13 -10 31 -18 41
-18 9 0 27 -11 40 -24 12 -14 35 -28 51 -31 16 -4 31 -10 34 -15 3 -5 45 -30
93 -56 48 -26 98 -55 111 -66 13 -10 31 -18 41 -18 9 0 27 -11 40 -24 12 -14
35 -28 51 -31 16 -4 31 -10 34 -15 3 -5 45 -30 93 -56 48 -26 98 -55 111 -66
13 -10 31 -18 41 -18 9 0 27 -11 40 -25 13 -14 31 -25 39 -25 9 0 36 -14 61
-30 25 -16 52 -30 61 -30 9 0 22 -7 29 -15 7 -8 37 -22 66 -31 30 -8 56 -19
59 -24 3 -5 30 -16 61 -25 30 -9 69 -25 87 -35 18 -11 41 -20 52 -20 11 0 38
-12 60 -25 22 -14 54 -25 70 -25 17 0 55 -10 85 -21 30 -11 82 -25 115 -30 33
-5 80 -18 105 -28 25 -11 79 -22 120 -26 41 -4 130 -18 198 -31 116 -22 145
-24 460 -24 300 0 347 3 427 21 50 11 136 24 192 29 60 6 122 19 149 31 26 11
73 24 103 28 31 5 82 18 113 30 32 12 73 21 91 21 19 0 46 9 60 20 14 11 40
23 59 26 18 4 51 17 73 29 22 12 56 26 75 30 19 4 47 16 62 26 14 11 34 19 45
19 10 0 32 7 48 16 17 9 48 26 70 37 22 10 47 25 55 32 8 7 26 16 40 20 14 4
39 17 55 30 17 12 41 26 55 30 14 4 34 15 45 25 11 10 36 25 55 34 19 9 53 28
75 41 22 14 58 34 80 45 23 10 52 28 65 40 12 11 31 20 41 20 9 0 30 11 46 24
15 13 44 31 63 40 19 9 53 28 75 41 22 14 56 32 75 42 19 10 48 28 63 40 16
13 37 23 47 23 10 0 31 10 47 23 15 12 44 30 63 40 19 10 53 29 75 42 22 14
59 34 81 45 23 11 47 26 53 34 7 8 25 18 41 21 16 3 34 13 41 22 7 8 36 26 64
39 27 14 68 36 90 49 22 14 59 34 81 45 23 11 47 26 53 34 7 8 25 18 41 21 16
3 34 13 42 22 7 9 31 24 53 35 22 11 63 32 90 48 28 16 71 41 97 54 26 14 49
30 52 35 4 5 19 12 35 16 16 3 35 13 43 22 7 9 31 24 53 35 22 11 63 32 90 48
28 16 71 41 97 54 26 14 49 30 52 35 4 5 19 12 35 16 16 3 35 13 43 22 7 9 31
24 53 35 22 11 63 32 90 48 28 16 70 41 95 55 25 14 68 39 95 55 28 16 68 37
90 48 22 11 46 26 53 35 8 9 27 19 43 22 16 4 31 10 34 15 3 5 45 30 93 56 48
26 98 55 111 66 13 10 31 18 41 18 9 0 27 11 40 24 12 14 35 28 51 31 16 4 31
10 34 15 3 5 48 32 100 60 52 28 97 55 100 60 3 5 18 11 34 15 16 3 39 17 51
31 13 13 31 24 40 24 10 0 28 8 41 18 28 21 173 104 239 137 26 13 52 30 59
39 7 9 22 16 31 16 10 0 32 11 48 25 17 14 34 25 38 25 5 0 45 22 90 48 44 27
95 54 112 61 17 7 38 21 48 32 9 10 25 19 35 19 10 0 30 10 46 23 15 12 44 30
63 40 19 10 53 28 75 42 22 13 56 32 75 41 19 9 44 24 55 34 11 10 37 23 57
29 20 7 42 19 49 27 6 8 30 23 53 34 22 11 59 31 81 45 22 13 56 32 75 41 19
9 44 24 55 34 11 10 37 23 57 29 20 7 42 19 49 27 6 8 30 23 53 34 22 11 59
31 81 45 22 13 58 33 80 43 22 11 46 26 53 35 8 9 26 19 42 22 16 3 34 13 41
22 7 8 36 26 64 39 27 13 68 35 90 49 22 13 58 33 80 43 22 11 46 27 54 36 7
9 22 16 31 16 10 0 31 11 47 24 15 13 44 31 63 40 19 9 58 30 85 46 28 16 68
38 90 48 22 11 46 27 54 36 7 9 21 16 31 16 9 0 34 13 55 30 21 16 46 30 55
30 10 0 24 7 31 16 8 9 32 25 54 36 22 10 63 32 90 48 28 16 66 36 85 46 19 9
44 24 55 34 11 10 31 21 45 25 14 4 38 18 53 31 16 13 34 24 41 24 8 0 24 8
37 19 13 10 58 36 99 57 41 21 84 45 95 55 11 9 31 20 45 24 14 4 38 18 53 31
16 13 34 24 41 24 8 0 24 8 37 18 13 11 60 38 104 61 44 24 87 49 95 56 8 7
26 16 40 20 14 4 38 18 53 31 16 13 34 24 41 24 8 0 24 8 37 18 13 11 60 38
104 61 44 24 87 49 95 56 8 7 26 16 40 20 14 4 38 18 53 31 16 13 34 24 41 24
8 0 24 8 37 19 13 10 56 35 96 56 40 21 80 46 89 56 10 11 25 19 34 19 10 0
33 12 53 28 20 15 55 38 78 52 23 14 73 50 110 80 37 30 84 66 104 80 155 106
489 440 595 595 14 21 32 45 40 54 48 53 140 182 140 195 0 5 11 24 25 42 14
18 25 37 25 42 0 5 9 20 19 34 35 44 151 264 151 285 0 8 8 26 19 39 10 13 22
41 26 61 4 20 15 48 26 61 10 14 19 32 19 41 0 9 13 43 30 76 16 33 30 74 30
90 0 17 9 50 20 74 11 23 25 72 30 108 6 36 19 82 29 102 10 20 21 71 25 115
3 43 16 119 28 170 l23 91 0 4910 0 4910 -22 97 c-13 53 -26 129 -29 170 -4
40 -17 99 -30 130 -13 32 -24 73 -24 93 0 20 -9 54 -21 76 -11 23 -25 68 -30
102 -6 33 -19 73 -29 88 -11 15 -20 35 -20 44 0 17 -41 112 -85 198 -14 26
-25 57 -25 69 0 11 -11 35 -24 52 -13 17 -27 42 -31 56 -4 14 -15 34 -25 45
-10 11 -24 31 -30 45 -6 14 -26 50 -45 80 -19 30 -44 73 -55 95 -26 51 -67
108 -86 118 -8 4 -14 13 -14 18 0 12 -14 30 -108 147 -34 42 -70 88 -80 101
-9 14 -80 88 -157 165 -133 134 -252 239 -358 316 -105 76 -123 90 -142 108
-26 24 -119 82 -132 82 -5 0 -20 11 -33 24 -12 14 -35 28 -51 31 -16 4 -31 10
-34 15 -5 8 -146 89 -234 135 -22 11 -47 28 -57 37 -11 9 -31 19 -46 23 -14 4
-34 15 -44 26 -9 10 -22 19 -28 19 -6 0 -53 25 -103 55 -51 30 -97 55 -102 55
-5 0 -22 11 -38 24 -16 14 -41 28 -56 31 -14 4 -31 13 -38 21 -6 8 -30 23 -53
34 -22 11 -61 32 -86 46 -25 15 -59 34 -76 43 -16 9 -44 27 -61 39 -17 12 -38
22 -46 22 -9 0 -28 11 -44 24 -15 13 -44 31 -63 40 -19 9 -57 29 -85 46 -27
16 -61 35 -74 40 -13 6 -37 22 -53 35 -16 14 -38 25 -48 25 -10 0 -31 11 -47
24 -15 13 -39 27 -53 31 -14 4 -33 14 -42 22 -19 17 -65 44 -118 68 -19 9 -44
25 -55 35 -11 10 -31 21 -45 25 -14 4 -38 18 -55 30 -16 13 -41 26 -55 30 -14
4 -34 15 -45 25 -11 9 -36 25 -55 35 -19 10 -51 26 -71 36 -19 10 -41 25 -48
33 -7 8 -25 18 -41 21 -16 3 -34 13 -42 22 -7 9 -31 24 -53 34 -22 11 -62 32
-90 49 -27 17 -68 38 -90 49 -22 10 -46 25 -53 34 -8 9 -26 19 -42 22 -16 3
-34 13 -42 22 -7 9 -31 24 -53 35 -49 24 -112 58 -145 80 -14 9 -41 20 -62 23
-31 6 -38 4 -51 -17z"/>
<path d="M24202 21488 c-7 -7 -12 -24 -12 -39 0 -15 -11 -57 -25 -93 -14 -37
-25 -75 -25 -85 0 -9 -11 -40 -25 -67 -14 -27 -25 -58 -25 -69 0 -12 -9 -39
-21 -60 -11 -22 -26 -63 -34 -92 -7 -28 -20 -62 -28 -75 -9 -13 -21 -43 -27
-68 -7 -24 -20 -55 -30 -68 -10 -12 -21 -36 -25 -52 -3 -16 -13 -34 -20 -40
-8 -6 -19 -28 -26 -48 -6 -20 -17 -44 -24 -52 -7 -8 -39 -69 -71 -135 -32 -66
-69 -131 -82 -146 -12 -15 -29 -42 -37 -61 -9 -18 -31 -53 -50 -78 -19 -25
-40 -56 -45 -69 -6 -13 -21 -36 -33 -51 -12 -16 -35 -51 -52 -79 -16 -28 -45
-68 -64 -89 -18 -20 -56 -66 -83 -102 -77 -103 -90 -120 -138 -172 -25 -28
-52 -61 -60 -74 -15 -22 -297 -318 -397 -416 -26 -26 -97 -88 -158 -139 -60
-51 -117 -100 -125 -109 -8 -10 -46 -41 -85 -70 -38 -29 -84 -65 -101 -79 -65
-54 -119 -93 -274 -197 -30 -20 -66 -45 -80 -55 -23 -17 -75 -53 -154 -105
-52 -34 -120 -74 -153 -89 -17 -8 -34 -19 -38 -25 -3 -5 -25 -19 -48 -30 -23
-11 -64 -33 -92 -49 -96 -54 -301 -158 -325 -166 -14 -4 -36 -16 -49 -26 -13
-11 -31 -19 -41 -19 -9 0 -33 -11 -52 -23 -19 -13 -47 -27 -63 -31 -16 -4 -40
-16 -53 -27 -14 -10 -32 -19 -41 -19 -9 0 -35 -9 -56 -21 -22 -11 -62 -27 -88
-35 -27 -9 -63 -24 -80 -35 -18 -10 -41 -19 -52 -19 -11 0 -34 -9 -52 -19 -17
-11 -51 -25 -75 -31 -24 -7 -56 -20 -73 -30 -16 -9 -50 -20 -74 -24 -24 -4
-57 -14 -74 -23 -17 -9 -59 -22 -92 -30 -33 -8 -69 -20 -81 -28 -11 -7 -46
-18 -77 -24 -31 -6 -67 -17 -79 -25 -13 -8 -54 -20 -92 -26 -38 -6 -90 -19
-115 -30 -25 -10 -71 -21 -101 -25 -30 -3 -74 -15 -96 -25 -23 -10 -70 -21
-105 -25 -35 -4 -91 -16 -124 -26 -33 -10 -101 -23 -151 -29 -50 -5 -111 -17
-135 -26 -24 -9 -91 -20 -149 -25 -58 -4 -148 -17 -200 -29 -52 -11 -120 -20
-150 -20 -52 0 -239 -17 -436 -40 -148 -17 -1021 -13 -1160 5 -64 9 -207 22
-318 30 -110 8 -223 22 -251 30 -27 8 -108 20 -180 25 -71 5 -150 16 -175 25
-25 9 -81 20 -125 25 -44 6 -105 18 -135 29 -30 10 -86 22 -125 26 -38 4 -90
16 -115 25 -25 10 -73 21 -105 25 -33 4 -76 16 -96 26 -20 10 -64 23 -97 28
-33 5 -75 17 -92 26 -17 9 -59 21 -92 26 -33 5 -77 18 -97 28 -20 10 -56 21
-81 25 -25 4 -60 15 -77 26 -17 10 -49 22 -70 26 -21 4 -58 18 -82 31 -24 12
-55 23 -69 23 -13 0 -39 9 -56 19 -17 11 -53 25 -81 32 -27 7 -63 21 -80 31
-16 10 -36 18 -44 18 -14 0 -106 40 -191 84 -25 13 -58 26 -74 30 -16 4 -41
16 -54 27 -14 10 -34 19 -46 19 -12 0 -37 11 -56 25 -19 14 -41 25 -49 25 -9
0 -27 7 -41 15 -14 8 -45 24 -69 35 -23 11 -54 29 -68 40 -14 11 -33 20 -43
20 -9 0 -25 9 -35 20 -9 10 -34 24 -54 31 -20 6 -45 19 -56 29 -11 10 -31 21
-45 25 -14 4 -32 13 -40 20 -8 6 -46 29 -85 50 -38 21 -83 49 -98 62 -16 12
-35 23 -42 23 -7 0 -27 11 -43 25 -17 14 -34 25 -40 25 -5 0 -16 7 -23 17 -8
9 -33 24 -55 35 -23 10 -47 24 -53 32 -6 8 -37 29 -67 47 -31 19 -96 67 -146
107 -50 40 -100 77 -110 83 -11 6 -27 17 -36 25 -50 43 -165 134 -170 134 -7
0 -24 16 -226 203 -194 181 -453 450 -530 552 -30 39 -80 102 -112 141 -33 39
-68 83 -79 98 -11 16 -40 55 -65 88 -25 33 -54 74 -64 91 -11 18 -35 56 -55
85 -20 30 -45 68 -56 86 -31 51 -57 89 -76 111 -9 11 -20 31 -24 45 -4 14 -17
39 -30 55 -12 17 -26 41 -30 55 -4 14 -13 31 -19 39 -12 15 -40 68 -104 198
-23 49 -52 105 -62 125 -11 20 -20 43 -20 50 0 7 -14 40 -30 73 -16 33 -30 66
-30 72 0 7 -11 34 -24 60 -13 27 -30 64 -36 83 -38 109 -53 146 -61 156 -12
15 -88 -13 -144 -51 -21 -14 -42 -25 -48 -25 -6 0 -18 -6 -26 -14 -9 -7 -52
-33 -96 -56 -44 -23 -87 -48 -95 -55 -8 -7 -31 -20 -50 -30 -19 -9 -56 -28
-81 -43 -26 -15 -90 -52 -143 -82 -54 -30 -118 -67 -144 -82 -26 -15 -65 -37
-87 -48 -22 -12 -85 -48 -140 -80 -55 -33 -118 -69 -140 -80 -22 -12 -61 -33
-87 -48 -26 -15 -90 -52 -144 -82 -53 -30 -117 -67 -143 -82 -25 -15 -64 -36
-86 -48 -22 -11 -80 -45 -130 -75 -49 -30 -112 -66 -140 -80 -51 -26 -76 -41
-230 -130 -48 -27 -107 -62 -133 -77 -26 -15 -70 -38 -99 -52 -28 -14 -54 -30
-58 -36 -3 -5 -21 -17 -38 -26 -61 -29 -150 -89 -195 -131 -7 -7 -17 -13 -22
-13 -35 0 -369 -332 -443 -440 -10 -14 -30 -42 -45 -64 -53 -75 -82 -121 -97
-153 -8 -17 -19 -34 -24 -37 -11 -7 -76 -140 -86 -176 -4 -14 -13 -32 -20 -40
-7 -8 -20 -40 -30 -70 -10 -30 -24 -64 -31 -75 -7 -11 -17 -48 -23 -82 -5 -34
-17 -75 -26 -93 -9 -17 -20 -69 -26 -115 -5 -47 -17 -111 -27 -142 -16 -55
-17 -333 -20 -4942 l-2 -4883 25 -122 c14 -66 25 -137 25 -156 1 -19 10 -60
21 -90 11 -30 25 -82 31 -115 5 -33 18 -71 28 -85 10 -14 21 -41 25 -60 4 -19
15 -48 25 -65 10 -16 23 -48 30 -70 7 -22 18 -47 25 -55 7 -8 19 -28 27 -45
28 -56 72 -130 84 -143 7 -6 16 -22 19 -33 6 -19 67 -106 84 -119 11 -9 67
-84 79 -105 15 -29 239 -249 292 -287 25 -17 70 -53 100 -79 51 -43 78 -61
149 -98 14 -7 35 -21 46 -31 11 -10 31 -21 45 -25 14 -4 33 -15 44 -24 10 -9
35 -25 57 -36 88 -46 229 -127 234 -135 3 -5 18 -11 34 -15 16 -3 35 -13 43
-22 7 -9 31 -24 53 -35 22 -10 83 -44 135 -75 52 -31 115 -67 140 -80 59 -32
119 -66 232 -132 51 -29 113 -65 138 -78 25 -13 66 -36 92 -51 117 -67 225
-129 267 -154 25 -15 69 -39 96 -53 52 -28 104 -57 202 -115 105 -62 117 -69
163 -91 25 -12 47 -25 50 -29 3 -5 26 -18 51 -31 26 -13 86 -46 133 -74 123
-71 175 -100 226 -128 25 -13 87 -49 138 -78 132 -77 182 -105 222 -126 19 -9
42 -23 50 -29 8 -7 51 -31 95 -55 44 -23 91 -50 104 -61 13 -10 29 -18 37 -18
7 0 25 -11 41 -24 15 -13 39 -27 53 -31 14 -4 36 -17 50 -27 14 -11 39 -26 55
-34 17 -7 53 -27 80 -43 28 -17 68 -39 90 -49 22 -11 46 -26 53 -35 8 -9 26
-19 42 -22 16 -3 34 -13 42 -22 7 -9 31 -24 53 -34 22 -10 63 -32 90 -49 28
-16 68 -38 90 -48 22 -11 46 -26 53 -35 8 -9 26 -19 42 -22 16 -3 34 -13 42
-22 7 -9 31 -24 53 -34 22 -10 63 -32 90 -49 28 -17 68 -39 90 -49 22 -10 46
-25 53 -34 8 -9 26 -19 42 -22 16 -3 34 -13 42 -22 7 -9 31 -24 53 -35 22 -10
58 -29 80 -42 94 -56 152 -87 185 -102 19 -9 42 -22 51 -30 16 -14 50 -34 144
-84 22 -11 58 -32 80 -45 22 -14 63 -36 90 -49 28 -13 57 -31 64 -39 7 -9 25
-19 41 -22 16 -3 34 -13 42 -22 7 -9 31 -24 53 -35 22 -10 58 -30 80 -43 22
-14 58 -34 81 -45 22 -11 51 -28 65 -38 13 -11 35 -23 49 -27 14 -4 34 -15 45
-25 11 -10 36 -25 55 -34 19 -9 53 -28 75 -41 22 -14 59 -34 81 -45 23 -11 47
-26 53 -34 7 -8 29 -20 49 -27 20 -7 50 -22 65 -35 16 -13 34 -24 41 -24 8 0
24 -8 37 -19 13 -10 56 -35 94 -56 39 -20 77 -43 85 -50 8 -7 31 -20 50 -29
34 -16 81 -42 214 -118 35 -21 69 -38 74 -38 5 0 16 -7 23 -16 8 -9 32 -25 54
-36 74 -36 302 -165 334 -190 13 -10 32 -18 41 -18 10 0 24 -7 31 -16 7 -9 32
-26 55 -38 79 -40 219 -119 243 -138 13 -10 31 -18 39 -18 9 0 24 -8 35 -18
10 -9 36 -26 58 -37 73 -38 214 -118 229 -130 8 -7 26 -16 40 -20 14 -4 33
-15 44 -24 10 -9 35 -25 57 -36 36 -19 172 -95 278 -157 25 -15 64 -36 86 -48
22 -12 63 -34 90 -50 28 -16 66 -37 85 -47 19 -10 46 -25 60 -34 14 -9 45 -22
70 -29 25 -6 52 -18 61 -26 8 -7 31 -17 50 -20 19 -4 52 -17 75 -30 22 -13 54
-24 70 -24 16 -1 54 -10 84 -21 30 -11 93 -27 140 -34 47 -8 119 -22 160 -31
60 -15 122 -18 310 -19 205 0 248 3 335 22 55 12 125 25 155 28 30 4 75 16 99
26 24 10 69 23 101 28 31 5 72 19 91 30 19 12 43 21 54 21 11 0 34 8 50 19 17
10 48 24 69 31 37 12 124 56 211 107 22 13 58 32 81 43 22 11 51 28 65 38 13
11 35 23 49 27 14 4 34 15 45 25 11 9 34 24 50 32 74 38 109 58 124 71 9 8 27
18 41 22 14 4 39 18 56 31 17 12 43 26 57 29 14 4 32 14 38 22 7 8 26 21 43
28 17 8 54 28 81 45 28 17 69 39 92 50 23 12 45 25 49 31 3 5 29 21 57 35 29
13 70 35 92 48 97 57 133 77 172 96 23 11 45 25 49 31 3 6 25 19 48 30 42 20
104 55 186 103 25 14 64 35 86 46 23 11 47 26 53 34 7 8 24 17 38 21 15 3 40
17 56 31 16 13 33 24 38 24 5 0 51 25 102 55 50 30 97 55 103 55 6 0 19 9 28
19 10 11 30 22 44 26 15 4 35 14 46 23 10 9 35 26 57 37 73 38 214 118 229
130 8 7 26 16 40 20 14 4 33 15 44 24 10 9 35 25 57 36 73 38 214 118 229 130
8 7 26 16 40 20 14 4 33 15 44 24 10 9 35 25 57 36 36 19 172 95 278 157 25
15 64 36 86 48 22 12 63 34 90 50 28 16 70 41 95 55 25 14 68 39 95 55 28 16
66 36 85 45 19 9 44 25 55 35 11 10 31 21 45 25 14 4 31 12 38 18 17 14 173
103 227 130 22 11 49 28 60 37 11 10 31 21 45 25 14 4 31 13 39 19 22 18 171
103 226 129 28 13 56 31 64 40 7 10 21 17 31 17 9 0 28 8 41 19 13 10 59 38
102 62 43 24 99 56 125 71 26 15 67 37 92 49 25 12 52 28 60 35 9 7 47 30 85
50 39 20 81 45 94 55 13 11 29 19 37 19 7 0 25 11 41 24 15 13 39 27 53 31 14
4 38 17 53 27 16 11 58 36 95 56 37 19 78 43 91 53 13 11 29 19 37 19 7 0 25
11 41 24 15 13 39 27 53 31 14 4 36 17 50 27 14 11 39 26 55 34 17 7 53 27 80
43 28 17 68 39 90 49 22 11 46 26 53 35 8 9 26 19 42 22 16 3 34 13 42 22 7 9
31 24 53 34 22 10 63 32 90 49 28 16 68 38 90 48 22 11 46 26 53 35 8 9 26 19
42 22 16 3 34 13 42 22 7 9 31 24 53 34 22 10 63 32 90 49 28 16 68 38 90 48
22 11 46 26 53 35 8 9 26 19 42 22 16 3 34 13 42 22 7 9 31 24 53 35 22 10 63
32 90 48 82 47 127 72 177 97 26 13 50 28 53 33 3 5 25 19 48 30 23 11 65 34
92 50 79 45 127 71 176 96 25 13 51 30 58 38 7 8 25 18 41 21 16 3 34 13 42
22 7 9 31 24 53 35 22 10 63 32 90 49 28 16 64 36 80 43 17 8 41 23 55 34 14
10 36 23 50 27 14 4 34 15 45 25 11 10 36 25 55 34 19 9 53 28 75 41 22 14 59
34 82 45 23 11 48 27 55 34 8 7 34 23 58 34 64 31 158 92 228 148 33 27 85 66
115 88 62 43 268 252 307 310 14 21 48 66 77 100 28 34 58 78 67 97 9 19 30
54 46 79 16 25 37 61 46 80 9 19 25 45 35 59 10 13 19 31 19 40 0 9 14 43 30
76 16 33 30 67 30 75 0 8 9 28 20 45 11 16 22 50 26 75 3 25 17 73 30 107 13
34 24 74 24 90 0 16 11 82 25 148 l25 120 0 4895 c-1 4284 -3 4904 -16 4965
-8 39 -21 112 -30 164 -8 51 -22 107 -30 123 -8 16 -19 54 -24 83 -5 29 -20
78 -34 108 -14 30 -26 61 -26 69 0 8 -9 27 -20 41 -11 14 -20 32 -20 40 0 16
-74 163 -94 187 -7 8 -15 22 -19 31 -8 23 -80 131 -156 234 -68 91 -315 333
-411 402 -47 34 -98 72 -115 86 -16 13 -57 39 -90 57 -33 18 -69 41 -80 51
-11 10 -32 21 -47 24 -14 4 -34 15 -44 26 -9 10 -22 19 -28 19 -6 0 -53 25
-103 55 -51 30 -97 55 -102 55 -5 0 -22 11 -38 24 -16 14 -41 28 -56 31 -14 4
-31 13 -38 21 -6 8 -30 23 -53 34 -22 11 -61 32 -86 47 -79 46 -144 82 -186
102 -23 11 -45 24 -48 30 -4 6 -26 20 -49 31 -23 11 -60 31 -82 44 -99 59
-133 78 -180 100 -28 13 -57 31 -64 39 -7 9 -25 19 -41 22 -16 3 -34 13 -41
21 -7 8 -29 23 -48 33 -78 40 -114 61 -130 74 -9 8 -32 20 -52 26 -20 7 -44
20 -54 31 -9 10 -30 22 -45 25 -16 3 -35 13 -42 22 -7 9 -26 22 -43 30 -16 7
-52 27 -80 43 -27 17 -69 39 -91 50 -23 11 -47 26 -53 34 -7 8 -29 20 -49 27
-20 6 -46 20 -57 30 -11 10 -31 23 -45 28 -14 6 -47 25 -75 41 -27 17 -69 39
-92 50 -23 12 -45 25 -49 31 -3 6 -25 19 -48 30 -42 20 -71 36 -193 107 -74
44 -101 50 -121 30z m-10243 -5991 c16 -34 33 -75 37 -92 4 -16 17 -50 30 -75
13 -25 24 -52 24 -61 0 -9 11 -36 24 -61 13 -25 27 -60 31 -79 4 -19 13 -44
20 -55 8 -12 23 -46 34 -75 43 -119 69 -185 85 -214 9 -16 16 -37 16 -45 0 -8
11 -37 25 -65 13 -27 25 -57 25 -65 0 -9 9 -34 20 -55 12 -22 29 -62 39 -90
49 -131 70 -182 85 -210 9 -16 16 -39 16 -50 0 -11 9 -34 19 -52 11 -17 25
-51 31 -75 7 -24 18 -53 25 -64 8 -12 23 -46 34 -75 10 -30 31 -84 45 -121 15
-38 37 -96 50 -130 13 -35 31 -76 40 -93 9 -16 16 -37 16 -45 0 -8 11 -37 25
-65 13 -27 25 -57 25 -65 0 -9 9 -34 20 -55 12 -22 29 -62 39 -90 49 -131 70
-182 85 -210 9 -16 16 -39 16 -50 0 -11 9 -34 19 -52 11 -17 25 -51 31 -75 7
-24 20 -56 30 -73 10 -16 21 -46 25 -65 4 -19 14 -46 22 -58 8 -13 23 -47 33
-75 37 -106 68 -183 84 -212 9 -16 16 -37 16 -45 0 -9 9 -34 20 -55 12 -22 28
-64 36 -92 8 -29 19 -55 24 -58 5 -3 16 -29 24 -58 8 -28 24 -70 36 -92 11
-21 20 -45 20 -53 0 -7 11 -34 25 -60 14 -26 25 -54 25 -62 0 -8 11 -37 25
-65 13 -27 25 -57 25 -66 0 -9 11 -36 24 -61 13 -25 27 -60 31 -78 4 -18 18
-53 31 -78 13 -25 24 -51 24 -59 0 -8 11 -35 25 -61 31 -58 33 -117 6 -132
-13 -6 -142 -10 -353 -10 -396 0 -389 -1 -424 95 -12 33 -34 90 -48 128 -14
37 -36 95 -49 130 -27 72 -44 105 -65 130 -14 16 -62 17 -747 17 -685 0 -733
-1 -747 -17 -20 -23 -58 -105 -58 -124 0 -8 -9 -32 -20 -54 -11 -21 -27 -63
-36 -94 -9 -31 -20 -61 -25 -67 -5 -6 -16 -35 -25 -63 -24 -81 -22 -81 -423
-81 l-340 0 -15 22 c-22 30 -20 47 8 100 13 25 27 60 31 78 4 18 18 53 31 78
13 25 24 52 24 61 0 9 12 39 25 66 14 28 25 56 25 63 0 7 11 35 25 62 14 27
25 55 25 63 0 7 9 31 20 52 11 22 27 61 34 87 8 25 21 57 29 70 8 12 18 38 22
57 4 19 18 54 31 79 13 25 24 52 24 61 0 9 11 36 24 61 13 25 27 60 31 79 4
19 16 48 26 65 10 17 19 38 19 47 0 8 11 38 25 64 13 27 27 62 31 79 3 16 17
49 30 74 13 25 24 52 24 61 0 9 12 39 25 66 14 28 25 57 25 65 0 8 11 35 24
60 13 25 27 61 31 80 4 19 14 44 21 55 8 12 22 46 33 76 38 106 69 184 85 214
9 17 16 37 16 45 0 8 11 38 25 65 13 28 25 57 25 66 0 9 11 36 24 61 13 25 27
60 31 78 4 18 18 53 31 78 13 25 24 52 24 61 0 9 12 39 25 66 14 28 25 57 25
65 0 8 9 29 19 47 11 17 25 51 31 75 7 24 18 52 25 64 7 11 20 43 28 71 9 28
22 62 30 75 8 12 18 38 22 57 4 19 18 54 31 79 13 25 24 52 24 61 0 9 7 30 16
46 16 30 47 108 85 214 10 30 23 59 28 65 5 6 16 34 24 61 9 28 25 68 36 90
12 21 21 46 21 55 0 8 12 38 25 65 14 28 25 57 25 65 0 8 11 35 24 60 13 25
27 59 30 76 4 16 18 52 31 79 14 26 25 54 25 62 0 24 70 154 80 148 5 -3 23
-34 39 -68z m3994 -32 c40 -8 110 -19 157 -25 46 -6 100 -18 120 -26 19 -9 58
-19 85 -24 46 -9 91 -26 220 -85 28 -13 61 -26 75 -30 14 -4 34 -15 45 -24 32
-27 78 -57 113 -75 41 -21 218 -196 259 -256 27 -39 48 -79 119 -224 8 -15 29
-85 46 -155 30 -118 32 -138 32 -306 1 -144 -2 -190 -16 -230 -9 -27 -22 -79
-28 -115 -7 -36 -20 -79 -31 -96 -10 -17 -19 -38 -19 -46 0 -19 -56 -126 -80
-153 -10 -11 -25 -34 -34 -52 -17 -34 -164 -188 -206 -216 -14 -9 -43 -30 -65
-46 -70 -52 -383 -201 -422 -201 -6 0 -16 -7 -23 -15 -10 -13 -10 -19 3 -33 8
-9 26 -36 39 -58 13 -23 41 -70 63 -104 22 -34 52 -81 66 -104 76 -121 90
-143 109 -171 12 -16 36 -55 55 -85 19 -30 38 -60 44 -66 5 -6 16 -26 26 -44
9 -18 37 -61 61 -97 24 -35 44 -68 44 -72 0 -5 12 -24 28 -44 15 -20 40 -58
56 -84 35 -59 57 -94 127 -203 30 -47 59 -92 64 -101 6 -9 19 -29 29 -45 27
-40 58 -90 92 -147 16 -27 39 -61 52 -77 12 -15 22 -32 22 -38 0 -5 14 -26 30
-47 17 -21 30 -42 30 -48 0 -6 8 -20 19 -31 10 -12 29 -40 42 -64 43 -79 57
-77 -386 -80 l-388 -2 -34 26 c-19 14 -40 38 -46 53 -6 14 -20 38 -32 53 -11
14 -33 49 -50 78 -16 29 -40 65 -52 80 -13 15 -23 32 -23 38 0 5 -13 26 -30
47 -16 21 -30 42 -30 47 0 6 -9 22 -21 36 -20 26 -58 86 -109 172 -14 23 -35
54 -47 70 -13 15 -23 32 -23 37 0 5 -13 27 -30 49 -16 21 -30 44 -30 50 0 6
-7 17 -16 25 -8 7 -24 29 -35 48 -11 20 -33 56 -49 81 -16 25 -39 63 -51 84
-11 21 -25 44 -30 50 -5 6 -24 34 -42 61 -17 28 -38 60 -45 70 -19 30 -45 72
-99 158 -26 43 -71 113 -99 156 -29 43 -55 86 -58 97 -4 10 -22 37 -41 59
l-34 40 -183 3 c-178 3 -183 3 -200 -18 -17 -21 -18 -75 -18 -864 0 -462 -4
-846 -8 -853 -18 -28 -70 -33 -377 -33 -313 0 -314 0 -329 22 -14 20 -16 153
-16 1230 0 1084 2 1208 16 1222 13 14 56 16 310 16 176 0 303 4 314 10 18 9
18 11 -3 48 -12 21 -31 52 -41 68 -11 16 -29 45 -41 64 -12 19 -30 48 -41 64
-10 15 -28 43 -39 61 -11 18 -35 54 -53 79 -17 26 -39 61 -48 77 -8 17 -23 38
-32 48 -9 10 -30 42 -47 71 -16 28 -40 65 -52 80 -13 15 -23 32 -23 36 0 5
-14 27 -30 48 -17 22 -30 44 -30 49 0 5 -10 22 -22 37 -13 15 -32 43 -43 61
-45 75 -58 94 -66 99 -24 16 -29 79 -29 390 0 189 4 340 10 354 l10 26 760 0
c626 0 774 -3 833 -15z m4515 3 c15 -15 17 -583 2 -622 l-10 -26 -421 0 c-379
0 -424 -2 -441 -17 -17 -15 -18 -84 -18 -1778 0 -1505 -2 -1764 -14 -1781 -14
-18 -29 -19 -351 -19 -322 0 -337 1 -351 19 -12 17 -14 276 -14 1780 0 1623
-1 1761 -17 1778 -15 17 -42 18 -439 18 l-422 0 -11 31 c-14 40 -15 567 -1
603 l10 26 1243 0 c953 0 1246 -3 1255 -12z m-12565 -5187 c14 -6 63 -15 108
-21 46 -6 107 -22 135 -36 28 -13 55 -24 61 -24 13 0 139 -65 189 -98 81 -53
99 -67 136 -102 29 -28 36 -40 31 -61 -4 -22 -122 -147 -225 -238 l-27 -24
-30 24 c-63 50 -88 66 -143 97 -32 18 -64 32 -71 32 -7 0 -31 9 -52 20 -61 31
-164 43 -315 37 -115 -4 -146 -9 -205 -32 -142 -55 -195 -87 -281 -174 -46
-45 -84 -89 -84 -95 0 -7 -9 -21 -20 -31 -10 -9 -25 -34 -31 -54 -7 -20 -18
-45 -26 -57 -7 -11 -23 -65 -36 -120 -40 -177 -22 -456 36 -560 9 -16 23 -45
32 -64 8 -19 26 -52 38 -72 26 -43 184 -198 202 -198 6 0 26 -11 44 -24 19
-14 48 -28 65 -32 17 -3 45 -15 63 -25 49 -30 236 -46 375 -31 61 6 120 18
132 25 12 8 42 21 69 30 26 9 59 25 74 36 14 12 30 21 35 21 9 0 25 11 99 69
l30 24 27 -24 c65 -59 210 -206 224 -230 16 -26 16 -27 -25 -66 -23 -22 -53
-47 -67 -56 -14 -9 -44 -30 -67 -46 -45 -32 -183 -101 -202 -101 -6 0 -33 -11
-59 -24 -26 -13 -75 -27 -110 -31 -34 -3 -81 -13 -103 -21 -50 -17 -283 -20
-325 -3 -16 5 -70 16 -120 24 -50 7 -109 23 -130 34 -21 12 -45 21 -53 21 -21
0 -142 60 -174 87 -16 13 -33 23 -39 23 -34 0 -229 188 -286 275 -25 39 -56
83 -69 98 -13 16 -23 36 -23 46 0 9 -9 35 -20 56 -66 128 -100 302 -99 515 0
223 20 325 109 550 12 30 30 64 41 76 10 11 19 25 19 31 0 6 7 16 16 24 8 7
24 29 34 49 22 44 182 206 230 235 61 36 70 42 87 57 20 17 174 88 191 88 6 0
28 9 49 20 21 10 77 24 125 30 48 6 98 15 110 20 31 12 270 13 301 1z m3298
-5 c46 -8 109 -17 139 -21 30 -4 75 -16 99 -26 24 -10 49 -19 55 -19 6 0 38
-14 71 -30 33 -16 65 -30 71 -30 6 0 40 -22 75 -50 35 -27 83 -64 107 -82 39
-30 163 -168 187 -208 17 -29 65 -114 79 -140 26 -47 58 -135 89 -245 31 -108
31 -114 31 -325 0 -131 -4 -231 -11 -255 -7 -22 -21 -75 -33 -119 -12 -43 -27
-88 -35 -100 -7 -11 -16 -35 -20 -52 -3 -17 -17 -46 -31 -65 -13 -18 -24 -38
-24 -45 0 -7 -11 -26 -25 -42 -14 -17 -25 -33 -25 -37 0 -17 -167 -199 -204
-222 -23 -14 -43 -29 -46 -32 -19 -22 -91 -70 -122 -80 -21 -7 -40 -16 -43
-21 -3 -5 -29 -16 -58 -26 -28 -9 -61 -23 -72 -30 -11 -7 -56 -18 -100 -24
-44 -5 -105 -17 -135 -25 -72 -19 -260 -20 -326 -1 -27 8 -87 20 -134 26 -47
6 -98 20 -115 29 -16 10 -43 22 -59 25 -17 4 -41 15 -55 25 -14 10 -39 21 -55
25 -27 7 -107 62 -114 79 -2 4 -21 16 -42 27 -54 28 -260 271 -260 307 0 5
-11 27 -25 47 -14 20 -28 49 -31 64 -4 15 -15 43 -24 62 -10 19 -30 85 -46
145 -27 104 -29 121 -29 315 0 194 2 211 29 315 16 61 36 126 46 145 9 19 20
49 24 65 4 17 14 37 21 45 8 9 21 31 30 50 41 88 161 239 237 298 131 101 162
122 196 133 20 6 48 20 61 30 13 11 31 19 40 19 9 0 36 10 61 21 25 11 88 28
140 36 52 8 118 18 145 23 81 12 177 11 266 -4z m4025 -40 c21 -30 20 -313 -2
-344 l-15 -22 -550 0 -550 0 -24 -25 -25 -24 0 -245 c0 -242 0 -245 22 -260
20 -14 82 -16 475 -16 437 0 453 -1 463 -19 6 -11 10 -89 10 -181 0 -92 -4
-170 -10 -181 -10 -18 -26 -19 -460 -19 -319 0 -456 -3 -475 -12 l-25 -11 0
-453 c0 -438 -1 -454 -19 -464 -29 -15 -354 -13 -369 2 -9 9 -12 275 -12 1137
0 1038 1 1126 17 1143 16 18 47 18 776 16 738 -3 759 -4 773 -22z m2932 12 c8
-8 12 -63 12 -183 0 -120 -4 -175 -12 -183 -9 -9 -148 -12 -565 -12 l-552 0
-16 -30 c-12 -24 -15 -73 -15 -266 0 -207 2 -240 17 -256 15 -17 43 -18 461
-18 400 0 447 -2 464 -17 16 -14 18 -34 18 -184 0 -139 -3 -170 -16 -183 -14
-14 -70 -16 -469 -16 -439 0 -455 -1 -465 -19 -6 -13 -10 -177 -10 -465 0
-430 -1 -446 -19 -456 -29 -15 -364 -13 -379 2 -9 9 -12 276 -12 1139 0 1192
-2 1140 45 1152 11 2 353 5 760 6 564 1 744 -2 753 -11z m2940 -4 c21 -15 22
-21 22 -172 0 -126 -3 -162 -16 -180 l-15 -22 -558 0 -558 0 -11 -25 c-15 -34
-17 -498 -2 -526 10 -18 26 -19 466 -19 l455 0 25 -25 c25 -25 25 -26 22 -181
-3 -150 -4 -157 -27 -175 -22 -18 -45 -19 -475 -19 -338 0 -455 -3 -464 -12
-15 -15 -17 -494 -2 -532 l10 -26 556 0 c505 0 559 -2 576 -17 16 -14 18 -34
18 -179 0 -151 -1 -164 -19 -174 -31 -16 -1512 -14 -1534 3 -16 11 -17 88 -15
1142 l3 1129 25 13 c19 10 188 13 760 13 650 0 738 -2 758 -16z m2976 0 c13
-13 16 -43 16 -175 0 -92 -4 -169 -10 -180 -10 -18 -27 -19 -569 -19 l-558 0
-11 -25 c-17 -37 -17 -516 0 -533 9 -9 126 -12 464 -12 l453 0 15 -22 c13 -18
16 -53 16 -178 0 -125 -3 -160 -16 -178 l-15 -22 -453 0 c-338 0 -455 -3 -464
-12 -16 -16 -17 -510 -2 -539 10 -18 27 -19 570 -19 543 0 560 -1 570 -19 15
-29 13 -334 -2 -349 -19 -19 -1531 -17 -1547 2 -8 10 -10 317 -9 1147 l3 1134
30 6 c17 4 362 7 767 8 657 1 738 -1 752 -15z m-8604 -2960 c158 -25 319 -91
419 -172 66 -54 161 -151 211 -218 24 -32 63 -81 85 -109 56 -68 101 -160 110
-221 7 -58 -8 -132 -31 -141 -29 -11 -65 -88 -67 -146 -2 -31 -11 -66 -21 -82
-49 -75 -243 -107 -483 -80 -76 8 -154 21 -173 29 -19 8 -62 23 -95 34 -154
51 -179 65 -336 195 -179 148 -231 207 -288 329 -27 56 -31 76 -31 145 0 70 4
90 32 149 17 38 42 83 56 101 25 34 90 63 101 45 6 -10 66 -36 163 -71 26 -10
53 -22 60 -28 7 -6 31 -20 53 -31 46 -24 87 -61 168 -155 140 -160 344 -288
508 -316 55 -10 136 -46 172 -79 11 -9 31 -34 44 -55 21 -33 26 -37 40 -26 11
10 14 28 11 77 -4 62 -6 65 -57 115 -48 46 -165 117 -194 117 -16 0 -129 58
-187 95 -62 40 -151 115 -241 205 -94 93 -108 103 -189 141 -55 26 -85 33
-192 42 -71 6 -128 15 -128 19 0 5 12 13 26 19 15 5 37 20 50 32 27 26 146 53
239 56 33 0 107 -6 165 -15z m-1480 -572 c21 -10 36 -26 38 -39 3 -18 -4 -24
-36 -33 -60 -16 -5637 -9 -5653 7 -21 21 -2 62 34 72 19 6 1118 10 2807 10
2623 1 2777 0 2810 -17z m8804 8 c14 -5 30 -19 37 -31 10 -20 9 -25 -11 -41
-21 -17 -134 -18 -2900 -18 -2766 0 -2879 1 -2900 18 -20 16 -21 21 -11 41 7
12 22 26 34 31 31 12 5718 13 5751 0z"/>
<path d="M13899 13734 c-6 -16 -20 -49 -30 -74 -24 -58 -56 -149 -79 -226 -10
-34 -25 -72 -33 -85 -8 -13 -18 -42 -22 -64 -3 -22 -13 -50 -21 -62 -8 -12
-21 -46 -28 -75 -8 -29 -23 -75 -34 -103 -25 -63 -40 -104 -64 -180 -11 -33
-28 -78 -38 -100 -10 -22 -21 -56 -25 -75 -4 -19 -13 -45 -21 -57 -7 -11 -19
-43 -25 -70 -7 -26 -23 -70 -36 -98 -25 -55 -29 -95 -11 -113 9 -9 130 -12
484 -12 425 0 473 2 485 16 17 21 13 57 -12 105 -10 20 -23 58 -30 85 -6 27
-18 59 -25 71 -7 11 -18 43 -25 70 -6 26 -18 58 -25 70 -8 12 -21 46 -28 75
-8 29 -23 76 -34 103 -25 63 -40 104 -64 180 -11 33 -28 78 -38 100 -10 22
-21 56 -25 75 -4 19 -13 45 -21 57 -7 11 -19 43 -25 70 -7 26 -23 71 -36 98
-12 28 -23 59 -23 70 0 11 -12 43 -25 70 -14 28 -25 57 -25 66 0 9 -7 22 -15
29 -12 10 -16 7 -26 -16z"/>
<path d="M17247 14742 c-16 -17 -14 -22 17 -73 19 -30 44 -66 55 -80 12 -15
24 -35 28 -45 3 -11 16 -31 27 -46 12 -14 35 -49 51 -78 17 -29 40 -65 53 -80
12 -15 22 -32 22 -38 0 -5 14 -26 30 -47 17 -21 30 -42 30 -47 0 -6 10 -23 23
-38 12 -16 35 -50 51 -77 34 -56 65 -106 92 -147 10 -16 27 -43 38 -60 10 -17
27 -41 37 -55 10 -13 19 -29 19 -35 0 -7 17 -28 38 -48 36 -36 38 -36 85 -28
26 5 55 14 65 19 10 5 46 14 80 21 34 6 79 22 99 35 20 14 41 25 47 25 20 1
95 57 142 107 25 26 60 77 77 113 27 58 31 77 35 182 4 108 2 121 -21 170 -13
29 -28 63 -31 75 -11 36 -148 156 -217 191 -35 17 -84 36 -109 41 -25 6 -60
17 -77 26 -46 23 -221 34 -519 35 -230 0 -252 -2 -267 -18z"/>
<path d="M12921 9888 c-47 -5 -98 -16 -114 -25 -16 -8 -46 -21 -66 -28 -87
-30 -219 -137 -279 -226 -61 -91 -76 -117 -84 -149 -6 -19 -18 -53 -29 -76
-48 -108 -50 -474 -3 -566 9 -17 22 -52 30 -79 8 -26 19 -51 25 -55 6 -3 19
-26 29 -49 31 -73 210 -238 281 -260 13 -4 38 -16 55 -26 97 -59 480 -59 577
-1 18 11 43 23 57 27 96 27 253 185 318 320 58 120 79 208 89 375 5 103 -25
298 -56 356 -12 21 -21 46 -21 54 -1 33 -143 223 -190 254 -14 8 -50 34 -80
56 -30 22 -60 40 -67 40 -7 0 -36 11 -65 24 -35 16 -88 28 -156 35 -115 12
-132 12 -251 -1z"/>
</g>
</svg>
